<svg xmlns="http://www.w3.org/2000/svg" xmlns:xlink="http://www.w3.org/1999/xlink" width="300" zoomAndPan="magnify" viewBox="0 0 224.87999 225" height="300" preserveAspectRatio="xMidYMid meet" version="1.0"><defs><g/><clipPath id="771a35b9b3"><path d="M 0 51 L 224.761719 51 L 224.761719 173.925781 L 0 173.925781 Z M 0 51 " clip-rule="nonzero"/></clipPath></defs><g clip-path="url(#771a35b9b3)"><path fill="#ffffff" d="M 224.875 173.886719 L 224.875 170.824219 L 220.714844 170.824219 L 220.386719 167.761719 L 215.902344 167.761719 L 215.902344 165.355469 L 210.757812 165.355469 L 210.429688 161.46875 L 206.273438 161.632812 L 206.273438 159.226562 L 201.34375 159.226562 C 201.460938 158.160156 201.554688 156.835938 201.546875 155.34375 C 201.519531 149.117188 200.78125 139.957031 200.582031 134.496094 C 200.253906 125.632812 199.597656 102.324219 199.925781 100.683594 C 200.253906 99.042969 201.785156 97.617188 201.730469 97.070312 C 201.683594 96.625 201.640625 96.078125 201.597656 95.550781 L 201.890625 95.550781 L 201.902344 95.441406 L 203.042969 95.539062 L 203.152344 87.113281 L 203.699219 87.113281 L 203.699219 85.910156 L 204.464844 85.910156 L 204.464844 84.707031 L 203.480469 84.707031 L 203.480469 77.921875 L 202.824219 77.921875 L 202.824219 77.265625 L 204.792969 77.484375 L 208.734375 76.171875 L 208.734375 73.871094 L 209.5 73.871094 L 209.609375 73.214844 L 210.046875 73.214844 L 210.046875 72.011719 L 209.0625 72.011719 C 209.0625 72.011719 209.28125 71.355469 209.0625 70.589844 C 208.886719 69.972656 208.425781 69.574219 208.257812 69.441406 L 208.898438 66.625 L 184.433594 61.066406 L 183.648438 64.53125 L 175.796875 62.75 L 175.011719 66.214844 L 140.894531 58.464844 L 140.164062 61.671875 L 134.761719 60.445312 L 134.761719 58.15625 L 127.703125 58.15625 L 127.703125 59.648438 L 122.789062 59.648438 L 121.726562 54.976562 L 118.632812 55.679688 L 117.953125 52.675781 L 113.589844 53.667969 L 113.007812 51.109375 L 52.371094 64.886719 L 51.636719 61.648438 L 36.007812 65.195312 L 35.183594 61.570312 L 14.910156 66.175781 L 15.890625 70.488281 L 15.867188 70.535156 L 15.917969 70.605469 L 16.046875 71.171875 L 16.285156 71.117188 L 16.414062 71.300781 L 16.523438 72.066406 L 17.617188 72.285156 L 17.675781 73.871094 L 19.644531 73.871094 L 20.082031 74.09375 L 21.175781 74.328125 L 21.503906 79.671875 L 21.722656 79.710938 L 21.722656 80.804688 L 21.394531 80.875 L 21.394531 84.160156 L 21.722656 84.242188 L 21.722656 85.035156 L 21.175781 85.035156 L 21.175781 86.566406 L 21.832031 86.566406 L 21.832031 93.898438 L 23.074219 93.898438 L 22.980469 94.527344 L 23.207031 95.550781 L 23.636719 95.550781 C 23.667969 95.863281 23.71875 96.136719 23.800781 96.304688 C 24.128906 96.960938 25.605469 97.808594 25.769531 98.46875 C 25.933594 99.125 25.277344 110.039062 24.949219 124.484375 C 24.691406 135.941406 24.429688 152.757812 24.332031 159.226562 L 19.914062 159.226562 L 19.914062 161.632812 L 15.648438 161.6875 L 15.429688 165.355469 L 10.285156 165.355469 L 10.285156 167.761719 L 5.144531 167.761719 L 5.144531 170.824219 L 0.164062 170.714844 L 0 173.886719 Z M 70.144531 96.359375 C 70.472656 97.015625 71.347656 98.273438 71.511719 98.933594 C 71.675781 99.589844 71.621094 107.90625 71.292969 122.347656 C 71.054688 132.789062 70.988281 149.117188 70.972656 157.367188 L 57.734375 157.367188 C 57.667969 147.820312 57.519531 130.730469 57.285156 124.484375 C 56.957031 115.621094 56.824219 100.03125 57.121094 98.386719 C 57.230469 97.789062 59.011719 96.003906 59.035156 95.550781 L 59.195312 95.550781 L 59.179688 94.109375 L 64.507812 94.28125 L 69.589844 94.226562 L 69.542969 95.550781 L 69.96875 95.550781 C 70.011719 95.910156 70.066406 96.203125 70.144531 96.359375 Z M 106.390625 95.550781 L 106.375 94.527344 L 115.722656 94.527344 L 117.574219 94.519531 L 117.582031 94.664062 L 117.855469 95.550781 L 118.066406 95.550781 C 118.101562 95.863281 118.152344 96.136719 118.238281 96.304688 C 118.566406 96.960938 119.769531 98.277344 119.933594 98.933594 C 120.097656 99.589844 120.019531 107.6875 119.691406 122.132812 C 119.449219 132.796875 119.382812 149.605469 119.367188 157.671875 L 114.789062 157.148438 L 114.355469 158.023438 L 105.941406 158.023438 C 105.792969 149.867188 105.445312 131.3125 105.191406 124.484375 C 104.863281 115.621094 104.699219 100.027344 105.027344 98.386719 C 105.300781 97.007812 106.035156 97.289062 106.035156 95.550781 Z M 166.878906 95.550781 L 167.058594 95.550781 C 167.046875 96.40625 167.070312 97.511719 167.261719 97.890625 C 167.589844 98.550781 169.121094 100.027344 169.285156 100.683594 C 169.449219 101.339844 169.394531 109.65625 169.066406 124.101562 C 168.84375 133.929688 168.773438 148.972656 168.75 157.585938 L 155.683594 157.585938 C 155.566406 150.972656 155.996094 139.480469 155.769531 133.402344 C 155.441406 124.539062 154.019531 101.796875 154.019531 100.121094 C 154.019531 99.152344 155.824219 98.125 155.824219 97.398438 C 155.824219 97.011719 155.929688 95.902344 155.8125 95.550781 L 156.257812 95.550781 L 156.261719 95.539062 L 163.59375 95.539062 L 163.59375 94.527344 L 166.636719 94.527344 L 166.550781 95.101562 Z M 142.039062 95.539062 L 142.039062 95.550781 L 142.429688 95.550781 C 142.308594 96.148438 142.136719 97.203125 142.367188 97.660156 C 142.695312 98.316406 144.226562 99.792969 144.390625 100.449219 C 144.554688 101.105469 144.5 109.421875 144.171875 123.867188 C 143.945312 133.785156 143.875 149.011719 143.855469 157.585938 L 136.457031 157.585938 L 130.449219 157.792969 C 130.300781 149.519531 129.953125 131.25 129.703125 124.484375 C 129.375 115.621094 129.234375 100.4375 129.34375 98.769531 C 129.398438 97.945312 131.09375 96.578125 131.09375 95.757812 C 131.09375 95.6875 131.085938 95.621094 131.085938 95.550781 L 131.257812 95.550781 L 131.191406 94.46875 L 135.582031 94.445312 L 135.582031 95.539062 Z M 188.460938 96.660156 C 188.792969 97.316406 190.433594 99.289062 190.597656 99.945312 C 190.761719 100.601562 191.582031 107.003906 191.253906 121.445312 C 191.078125 129.058594 190.667969 140.398438 190.628906 148.859375 C 190.613281 152.648438 190.605469 155.980469 190.601562 158.371094 L 185.699219 157.585938 L 179.808594 157.585938 C 179.6875 149.65625 179.464844 136.398438 179.242188 130.390625 C 178.914062 121.527344 178.585938 101.996094 178.914062 100.355469 C 179.242188 98.714844 180.882812 98.113281 180.882812 97.675781 C 180.882812 97.054688 180.882812 96.242188 180.882812 95.550781 L 181.152344 95.550781 L 181.339844 94.527344 L 187.710938 94.527344 L 187.699219 94.691406 L 188.1875 95.550781 L 188.355469 95.550781 C 188.335938 96.027344 188.355469 96.449219 188.460938 96.660156 Z M 36.707031 95.550781 L 36.691406 93.898438 L 45.433594 93.898438 L 45.304688 94.773438 L 45.414062 95.550781 L 45.761719 95.550781 C 45.796875 95.742188 45.84375 95.910156 45.90625 96.03125 C 46.234375 96.6875 47.328125 98.058594 47.492188 98.714844 C 47.65625 99.371094 47.601562 107.6875 47.273438 122.132812 C 47.011719 133.722656 46.957031 152.570312 46.949219 159.5625 L 46.179688 157.257812 L 41.144531 157.476562 L 41.144531 156.929688 L 35.476562 157.121094 C 35.507812 148.804688 35.539062 131.15625 35.292969 124.484375 C 34.964844 115.621094 34.527344 100.246094 34.855469 98.605469 C 35.175781 97 36.324219 96.539062 36.429688 95.550781 Z M 93.78125 157.585938 L 90.0625 157.367188 L 82.039062 157.367188 C 81.886719 148.824219 81.550781 131.296875 81.304688 124.703125 C 80.976562 115.835938 81.457031 101.042969 81.523438 99.371094 C 81.574219 98.097656 82.796875 97.285156 83.058594 95.550781 L 82.074219 95.550781 L 82.066406 94.160156 L 93.5625 94.359375 L 93.550781 94.773438 L 93.691406 95.550781 L 94.089844 95.550781 C 94.105469 95.695312 94.183594 95.8125 94.183594 95.921875 C 94.183594 97.398438 95.234375 98.058594 95.398438 98.714844 C 95.5625 99.371094 95.507812 107.6875 95.179688 122.132812 C 94.933594 132.867188 94.871094 149.828125 94.855469 157.832031 L 94.4375 157.804688 L 93.78125 157.585938 " fill-opacity="1" fill-rule="nonzero"/></g><g fill="#d9b567" fill-opacity="1"><g transform="translate(14.329617, 140.546244)"><g><path d="M 24.453125 -0.15625 C 26.835938 -1.101562 28.066406 -2.40625 28.140625 -4.0625 C 26.554688 -5.070312 25.148438 -6.035156 23.921875 -6.953125 C 22.691406 -7.867188 21.59375 -8.703125 20.625 -9.453125 C 19.65625 -10.210938 18.800781 -10.898438 18.0625 -11.515625 C 17.332031 -12.128906 16.664062 -12.644531 16.0625 -13.0625 C 14.0625 -14.394531 12.484375 -15.597656 11.328125 -16.671875 C 10.171875 -17.742188 9.398438 -18.894531 9.015625 -20.125 C 9.253906 -20.550781 9.601562 -20.972656 10.0625 -21.390625 C 10.519531 -21.804688 11.046875 -22.226562 11.640625 -22.65625 L 13.484375 -24.03125 C 13.628906 -24.445312 13.957031 -24.941406 14.46875 -25.515625 C 14.976562 -26.097656 15.507812 -26.671875 16.0625 -27.234375 L 17.28125 -28.40625 C 17.28125 -28.71875 17.5 -29.109375 17.9375 -29.578125 C 18.375 -30.054688 18.925781 -30.582031 19.59375 -31.15625 C 20.257812 -31.738281 21.015625 -32.375 21.859375 -33.0625 C 22.703125 -33.75 23.507812 -34.453125 24.28125 -35.171875 C 25.0625 -35.890625 25.773438 -36.625 26.421875 -37.375 C 27.066406 -38.132812 27.550781 -38.882812 27.875 -39.625 C 27.832031 -39.757812 27.78125 -39.929688 27.71875 -40.140625 L 27.8125 -40.140625 L 27.71875 -40.25 C 27.613281 -40.394531 27.503906 -40.519531 27.390625 -40.625 C 27.285156 -40.726562 27.144531 -40.847656 26.96875 -40.984375 L 26.71875 -41.25 C 26.5 -41.46875 26.273438 -41.6875 26.046875 -41.90625 C 25.828125 -42.132812 25.539062 -42.25 25.1875 -42.25 C 24.90625 -42.25 24.5 -42.128906 23.96875 -41.890625 L 23.96875 -41.9375 C 21.332031 -40.570312 18.769531 -38.585938 16.28125 -35.984375 L 9.859375 -29.453125 C 8.410156 -28.679688 7.003906 -27.609375 5.640625 -26.234375 C 5.316406 -25.148438 4.628906 -24.082031 3.578125 -23.03125 L 0.109375 -19.4375 C 3.191406 -16.03125 6.453125 -12.90625 9.890625 -10.0625 C 13.335938 -7.21875 16.976562 -4.601562 20.8125 -2.21875 C 21.34375 -1.09375 22.46875 -0.40625 24.1875 -0.15625 Z M 24.453125 -0.15625 "/></g></g></g><g fill="#d9b567" fill-opacity="1"><g transform="translate(45.208398, 140.546244)"><g><path d="M 28.40625 -0.46875 C 28.894531 -0.789062 29.242188 -1.109375 29.453125 -1.421875 C 29.660156 -1.734375 29.816406 -2.082031 29.921875 -2.46875 L 29.875 -2.46875 L 30.1875 -3.265625 C 28.1875 -4.953125 26.40625 -6.613281 24.84375 -8.25 C 23.28125 -9.882812 21.890625 -11.445312 20.671875 -12.9375 C 19.460938 -14.425781 18.410156 -15.820312 17.515625 -17.125 C 16.617188 -18.425781 15.820312 -19.582031 15.125 -20.59375 L 15.171875 -20.546875 C 15.097656 -20.648438 15.035156 -20.753906 14.984375 -20.859375 C 14.929688 -20.960938 14.875 -21.070312 14.8125 -21.1875 L 14.8125 -21.703125 C 15.195312 -21.910156 15.765625 -22.144531 16.515625 -22.40625 C 17.273438 -22.675781 18.070312 -22.941406 18.90625 -23.203125 C 19.75 -23.472656 20.566406 -23.753906 21.359375 -24.046875 C 22.148438 -24.347656 22.773438 -24.640625 23.234375 -24.921875 C 25.128906 -26.285156 26.675781 -27.757812 27.875 -29.34375 C 27.382812 -30.894531 26.734375 -32.253906 25.921875 -33.421875 C 25.109375 -34.597656 24.035156 -35.644531 22.703125 -36.5625 C 21.367188 -37.476562 19.703125 -38.285156 17.703125 -38.984375 C 15.703125 -39.691406 13.257812 -40.359375 10.375 -40.984375 C 9.46875 -41.160156 8.539062 -41.351562 7.59375 -41.5625 C 6.644531 -41.78125 5.78125 -41.992188 5 -42.203125 C 3.84375 -41.847656 3.125 -41.257812 2.84375 -40.4375 C 2.5625 -39.613281 2.421875 -38.691406 2.421875 -37.671875 L 2.421875 -35.71875 C 2.734375 -34.875 2.890625 -33.664062 2.890625 -32.09375 C 2.890625 -31.664062 2.863281 -31.171875 2.8125 -30.609375 C 2.757812 -30.046875 2.707031 -29.457031 2.65625 -28.84375 C 2.601562 -28.226562 2.554688 -27.601562 2.515625 -26.96875 C 2.484375 -26.34375 2.46875 -25.75 2.46875 -25.1875 C 2.46875 -24.238281 2.53125 -23.359375 2.65625 -22.546875 C 2.78125 -21.742188 2.984375 -21.023438 3.265625 -20.390625 C 2.566406 -19.191406 2.21875 -17.890625 2.21875 -16.484375 C 2.21875 -16.097656 2.273438 -15.535156 2.390625 -14.796875 C 2.515625 -14.066406 2.644531 -13.285156 2.78125 -12.453125 C 2.925781 -11.628906 3.0625 -10.835938 3.1875 -10.078125 C 3.3125 -9.328125 3.375 -8.742188 3.375 -8.328125 C 2.28125 -7.585938 1.734375 -6.5 1.734375 -5.0625 L 1.734375 -4.109375 C 1.773438 -3.929688 1.796875 -3.773438 1.796875 -3.640625 C 1.796875 -3.535156 1.796875 -3.445312 1.796875 -3.375 C 1.796875 -2.8125 1.671875 -2.210938 1.421875 -1.578125 L 2.734375 -0.046875 C 3.085938 0.0546875 3.441406 0.125 3.796875 0.15625 C 4.148438 0.1875 4.535156 0.203125 4.953125 0.203125 C 5.648438 0.203125 6.316406 0.109375 6.953125 -0.078125 C 7.585938 -0.273438 8.238281 -0.566406 8.90625 -0.953125 C 8.9375 -1.410156 8.953125 -1.9375 8.953125 -2.53125 C 8.953125 -3.164062 8.953125 -3.765625 8.953125 -4.328125 C 8.953125 -4.847656 8.929688 -5.671875 8.890625 -6.796875 C 8.859375 -7.921875 8.828125 -9.101562 8.796875 -10.34375 C 8.765625 -11.59375 8.726562 -12.78125 8.6875 -13.90625 C 8.65625 -15.03125 8.640625 -15.859375 8.640625 -16.390625 L 8.640625 -18.28125 C 9.128906 -18.207031 9.578125 -18.070312 9.984375 -17.875 C 10.390625 -17.6875 10.800781 -17.414062 11.21875 -17.0625 C 11.644531 -16.71875 12.09375 -16.253906 12.5625 -15.671875 C 13.039062 -15.097656 13.59375 -14.367188 14.21875 -13.484375 C 15.445312 -11.660156 16.539062 -10.394531 17.5 -9.6875 C 17.882812 -9.625 18.179688 -9.363281 18.390625 -8.90625 C 18.597656 -8.445312 18.820312 -7.882812 19.0625 -7.21875 C 19.3125 -6.550781 19.617188 -5.859375 19.984375 -5.140625 C 20.359375 -4.421875 20.914062 -3.757812 21.65625 -3.15625 C 22.144531 -2.769531 22.570312 -2.375 22.9375 -1.96875 C 23.3125 -1.570312 23.65625 -1.210938 23.96875 -0.890625 C 24.289062 -0.578125 24.597656 -0.316406 24.890625 -0.109375 C 25.191406 0.0976562 25.5 0.203125 25.8125 0.203125 C 25.957031 0.203125 26.132812 0.164062 26.34375 0.09375 C 26.550781 0.03125 26.796875 -0.0507812 27.078125 -0.15625 L 27.03125 -0.15625 C 27.238281 -0.226562 27.429688 -0.296875 27.609375 -0.359375 C 27.785156 -0.429688 27.925781 -0.46875 28.03125 -0.46875 Z M 9.0625 -24.453125 L 8.59375 -24.28125 C 8.625 -24.53125 8.640625 -24.8125 8.640625 -25.125 C 8.640625 -25.445312 8.640625 -25.800781 8.640625 -26.1875 C 8.640625 -26.820312 8.613281 -27.550781 8.5625 -28.375 C 8.507812 -29.195312 8.484375 -30.066406 8.484375 -30.984375 C 8.484375 -32.703125 8.726562 -34.050781 9.21875 -35.03125 C 10.34375 -34.894531 11.367188 -34.789062 12.296875 -34.71875 C 13.234375 -34.644531 14.164062 -34.453125 15.09375 -34.140625 C 16.019531 -33.828125 17.019531 -33.335938 18.09375 -32.671875 C 19.164062 -32.003906 20.40625 -31 21.8125 -29.65625 C 18.40625 -28.113281 15.703125 -26.945312 13.703125 -26.15625 C 11.703125 -25.363281 10.15625 -24.796875 9.0625 -24.453125 Z M 9.0625 -24.453125 "/></g></g></g><g fill="#d9b567" fill-opacity="1"><g transform="translate(73.861713, 140.546244)"><g><path d="M 25.5 -0.15625 C 27.820312 -1.101562 29.015625 -2.40625 29.078125 -4.0625 C 25.640625 -6.269531 22.960938 -8.179688 21.046875 -9.796875 C 19.128906 -11.410156 17.628906 -12.640625 16.546875 -13.484375 C 15.734375 -14.015625 14.929688 -14.5625 14.140625 -15.125 C 13.359375 -15.6875 12.664062 -16.265625 12.0625 -16.859375 C 13.007812 -17.003906 14.226562 -17.171875 15.71875 -17.359375 C 17.21875 -17.554688 18.738281 -17.773438 20.28125 -18.015625 C 21.832031 -18.265625 23.289062 -18.554688 24.65625 -18.890625 C 26.03125 -19.222656 27.03125 -19.617188 27.65625 -20.078125 L 27.65625 -22.234375 C 27.65625 -23.328125 27.203125 -24.066406 26.296875 -24.453125 L 26.078125 -24.5 C 25.765625 -24.46875 25.203125 -24.414062 24.390625 -24.34375 C 23.585938 -24.269531 22.703125 -24.171875 21.734375 -24.046875 C 20.765625 -23.929688 19.78125 -23.785156 18.78125 -23.609375 C 17.78125 -23.429688 16.929688 -23.238281 16.234375 -23.03125 C 15.453125 -22.75 14.726562 -22.550781 14.0625 -22.4375 C 13.394531 -22.332031 12.765625 -22.28125 12.171875 -22.28125 C 12.273438 -22.351562 12.414062 -22.476562 12.59375 -22.65625 L 14.484375 -23.96875 C 14.585938 -24.351562 14.894531 -24.84375 15.40625 -25.4375 C 15.914062 -26.039062 16.472656 -26.640625 17.078125 -27.234375 L 18.234375 -28.40625 C 18.722656 -29.03125 19.222656 -29.578125 19.734375 -30.046875 C 20.242188 -30.523438 20.757812 -30.992188 21.28125 -31.453125 L 21.234375 -31.453125 C 21.867188 -32.015625 22.570312 -32.640625 23.34375 -33.328125 C 24.113281 -34.015625 24.859375 -34.71875 25.578125 -35.4375 C 26.296875 -36.15625 26.945312 -36.875 27.53125 -37.59375 C 28.113281 -38.3125 28.539062 -38.988281 28.8125 -39.625 C 28.78125 -39.757812 28.726562 -39.929688 28.65625 -40.140625 L 28.8125 -40.140625 C 28.75 -40.210938 28.664062 -40.316406 28.5625 -40.453125 C 28.457031 -40.597656 28.347656 -40.707031 28.234375 -40.78125 L 27.765625 -41.25 C 27.554688 -41.5 27.316406 -41.726562 27.046875 -41.9375 C 26.785156 -42.144531 26.484375 -42.25 26.140625 -42.25 C 25.890625 -42.25 25.5 -42.128906 24.96875 -41.890625 L 24.96875 -41.9375 C 23.632812 -41.238281 22.332031 -40.394531 21.0625 -39.40625 C 19.800781 -38.425781 18.539062 -37.285156 17.28125 -35.984375 L 10.796875 -29.40625 C 10.054688 -29.007812 9.34375 -28.546875 8.65625 -28.015625 C 7.976562 -27.492188 7.304688 -26.921875 6.640625 -26.296875 C 6.390625 -25.234375 5.703125 -24.144531 4.578125 -23.03125 L 1.046875 -19.4375 C 4.140625 -16.03125 7.414062 -12.90625 10.875 -10.0625 C 14.332031 -7.21875 17.976562 -4.601562 21.8125 -2.21875 C 22.34375 -1.15625 23.46875 -0.46875 25.1875 -0.15625 Z M 25.5 -0.15625 "/></g></g></g><g fill="#d9b567" fill-opacity="1"><g transform="translate(106.20441, 140.546244)"><g><path d="M 1.421875 -0.421875 C 1.878906 -0.140625 2.316406 0 2.734375 0 C 3.753906 0 4.617188 -0.457031 5.328125 -1.375 C 5.953125 -3.269531 6.78125 -5.679688 7.8125 -8.609375 C 8.851562 -11.546875 10.0625 -14.894531 11.4375 -18.65625 C 11.675781 -18.832031 11.988281 -18.921875 12.375 -18.921875 C 12.769531 -18.921875 13.316406 -18.820312 14.015625 -18.625 C 14.710938 -18.425781 15.46875 -18.328125 16.28125 -18.328125 C 16.414062 -18.328125 16.609375 -18.335938 16.859375 -18.359375 C 17.109375 -18.378906 17.375 -18.390625 17.65625 -18.390625 C 17.9375 -18.390625 18.21875 -18.394531 18.5 -18.40625 C 18.78125 -18.425781 19.023438 -18.4375 19.234375 -18.4375 C 19.617188 -18.4375 19.976562 -18.398438 20.3125 -18.328125 C 20.644531 -18.265625 20.96875 -18.179688 21.28125 -18.078125 C 21.914062 -16.703125 22.671875 -15.015625 23.546875 -13.015625 C 24.429688 -11.015625 25.429688 -8.765625 26.546875 -6.265625 C 26.515625 -6.054688 26.5 -5.863281 26.5 -5.6875 C 26.5 -5.550781 26.5 -5.394531 26.5 -5.21875 C 26.5 -4.757812 26.566406 -4.253906 26.703125 -3.703125 C 26.847656 -3.160156 27.0625 -2.613281 27.34375 -2.0625 L 27.34375 -2.109375 L 27.765625 -0.890625 C 28.359375 -0.785156 28.925781 -0.710938 29.46875 -0.671875 C 30.019531 -0.640625 30.539062 -0.625 31.03125 -0.625 C 31.414062 -0.625 31.894531 -0.640625 32.46875 -0.671875 C 33.050781 -0.710938 33.710938 -0.804688 34.453125 -0.953125 L 34.453125 -2.109375 C 34.453125 -2.910156 34.210938 -3.898438 33.734375 -5.078125 C 33.265625 -6.253906 32.757812 -7.382812 32.21875 -8.46875 C 31.675781 -9.5625 31.164062 -10.515625 30.6875 -11.328125 C 30.21875 -12.140625 29.984375 -12.597656 29.984375 -12.703125 C 29.910156 -12.984375 29.820312 -13.234375 29.71875 -13.453125 C 29.613281 -13.679688 29.523438 -13.90625 29.453125 -14.125 C 28.710938 -16.15625 28.078125 -17.914062 27.546875 -19.40625 C 27.023438 -20.90625 26.523438 -22.257812 26.046875 -23.46875 C 25.578125 -24.6875 25.101562 -25.8125 24.625 -26.84375 C 24.15625 -27.882812 23.625 -28.984375 23.03125 -30.140625 C 22.5 -31.328125 21.914062 -32.710938 21.28125 -34.296875 C 20.65625 -35.878906 20.039062 -37.515625 19.4375 -39.203125 L 19.4375 -39.3125 C 19.4375 -39.476562 19.332031 -39.726562 19.125 -40.0625 C 18.914062 -40.394531 18.671875 -40.738281 18.390625 -41.09375 C 18.109375 -41.445312 17.804688 -41.742188 17.484375 -41.984375 C 17.171875 -42.234375 16.910156 -42.359375 16.703125 -42.359375 C 16.492188 -42.359375 16.28125 -42.335938 16.0625 -42.296875 C 15.851562 -42.265625 15.644531 -42.160156 15.4375 -41.984375 L 15.484375 -41.984375 C 14.921875 -41.640625 14.484375 -41.1875 14.171875 -40.625 C 13.859375 -40.0625 13.617188 -39.476562 13.453125 -38.875 C 13.296875 -38.28125 13.191406 -37.710938 13.140625 -37.171875 C 13.085938 -36.628906 13.0625 -36.195312 13.0625 -35.875 C 13.0625 -35.8125 13.097656 -35.78125 13.171875 -35.78125 C 12.859375 -35.175781 12.488281 -34.378906 12.0625 -33.390625 C 11.644531 -32.410156 11.195312 -31.382812 10.71875 -30.3125 C 10.25 -29.25 9.757812 -28.21875 9.25 -27.21875 C 8.738281 -26.21875 8.238281 -25.398438 7.75 -24.765625 C 7.289062 -23.078125 6.691406 -21.171875 5.953125 -19.046875 C 5.210938 -16.921875 4.28125 -14.503906 3.15625 -11.796875 C 2.8125 -10.953125 2.460938 -10.097656 2.109375 -9.234375 C 1.753906 -8.378906 1.4375 -7.554688 1.15625 -6.765625 C 0.875 -5.972656 0.644531 -5.234375 0.46875 -4.546875 C 0.289062 -3.867188 0.203125 -3.316406 0.203125 -2.890625 C 0.203125 -1.878906 0.609375 -1.054688 1.421875 -0.421875 Z M 17.90625 -27.34375 C 18.082031 -26.675781 18.265625 -26.0625 18.453125 -25.5 C 18.648438 -24.9375 18.859375 -24.425781 19.078125 -23.96875 C 18.753906 -23.9375 18.335938 -23.894531 17.828125 -23.84375 C 17.328125 -23.789062 16.8125 -23.726562 16.28125 -23.65625 C 15.75 -23.582031 15.242188 -23.519531 14.765625 -23.46875 C 14.296875 -23.414062 13.941406 -23.390625 13.703125 -23.390625 L 13.546875 -23.390625 C 14.035156 -24.722656 14.566406 -26.046875 15.140625 -27.359375 C 15.722656 -28.679688 16.347656 -29.765625 17.015625 -30.609375 C 17.117188 -30.222656 17.25 -29.757812 17.40625 -29.21875 C 17.570312 -28.675781 17.738281 -28.050781 17.90625 -27.34375 Z M 17.90625 -27.34375 "/></g></g></g><g fill="#d9b567" fill-opacity="1"><g transform="translate(131.396963, 140.546244)"><g><path d="M 34.875 -36.5625 C 34.875 -36.769531 34.894531 -36.894531 34.9375 -36.9375 C 35 -37.25 35.082031 -37.648438 35.1875 -38.140625 C 35.300781 -38.640625 35.359375 -38.992188 35.359375 -39.203125 C 35.359375 -39.722656 35.234375 -40.132812 34.984375 -40.4375 C 34.734375 -40.738281 34.414062 -40.957031 34.03125 -41.09375 C 33.644531 -41.238281 33.195312 -41.328125 32.6875 -41.359375 C 32.175781 -41.390625 31.660156 -41.40625 31.140625 -41.40625 C 30.785156 -41.40625 30.195312 -41.367188 29.375 -41.296875 C 28.550781 -41.234375 27.664062 -41.148438 26.71875 -41.046875 C 25.769531 -40.941406 24.835938 -40.851562 23.921875 -40.78125 C 23.003906 -40.707031 22.300781 -40.671875 21.8125 -40.671875 L 21.390625 -40.671875 C 20.410156 -40.953125 19.207031 -41.082031 17.78125 -41.0625 C 16.351562 -41.050781 14.585938 -41.082031 12.484375 -41.15625 C 10.585938 -41.21875 8.945312 -41.316406 7.5625 -41.453125 C 6.175781 -41.597656 5.023438 -41.757812 4.109375 -41.9375 L 4.15625 -41.9375 C 3.875 -42.007812 3.554688 -42.0625 3.203125 -42.09375 C 2.859375 -42.132812 2.597656 -42.171875 2.421875 -42.203125 C 1.546875 -40.304688 1.109375 -38.863281 1.109375 -37.875 C 1.109375 -36.863281 1.316406 -36.234375 1.734375 -35.984375 C 2.160156 -35.734375 2.632812 -35.609375 3.15625 -35.609375 L 3.734375 -35.609375 C 4.234375 -35.441406 4.65625 -35.453125 5 -35.640625 C 5.351562 -35.835938 5.566406 -35.9375 5.640625 -35.9375 C 5.671875 -35.9375 5.710938 -35.925781 5.765625 -35.90625 C 5.816406 -35.882812 5.878906 -35.875 5.953125 -35.875 C 6.691406 -35.769531 7.289062 -35.695312 7.75 -35.65625 C 8.207031 -35.625 8.546875 -35.597656 8.765625 -35.578125 C 8.992188 -35.566406 9.144531 -35.566406 9.21875 -35.578125 C 9.289062 -35.597656 9.328125 -35.609375 9.328125 -35.609375 L 10.640625 -35.609375 C 12.078125 -35.609375 13.304688 -35.46875 14.328125 -35.1875 C 14.253906 -34.945312 14.179688 -34.675781 14.109375 -34.375 C 14.046875 -34.082031 13.976562 -33.796875 13.90625 -33.515625 C 13.832031 -33.335938 13.785156 -33.140625 13.765625 -32.921875 C 13.753906 -32.710938 13.734375 -32.578125 13.703125 -32.515625 C 14.546875 -30.609375 14.96875 -28.515625 14.96875 -26.234375 C 14.96875 -25.671875 14.929688 -24.90625 14.859375 -23.9375 C 14.785156 -22.976562 14.703125 -21.988281 14.609375 -20.96875 C 14.523438 -19.945312 14.445312 -19 14.375 -18.125 C 14.3125 -17.25 14.257812 -16.632812 14.21875 -16.28125 C 14.289062 -15.789062 14.34375 -15.238281 14.375 -14.625 C 14.414062 -14.007812 14.4375 -13.332031 14.4375 -12.59375 C 14.4375 -12.101562 14.425781 -11.53125 14.40625 -10.875 C 14.394531 -10.226562 14.367188 -9.5625 14.328125 -8.875 C 14.296875 -8.1875 14.269531 -7.519531 14.25 -6.875 C 14.226562 -6.226562 14.21875 -5.65625 14.21875 -5.15625 L 14.21875 -3.90625 C 14.21875 -2.707031 14.316406 -1.753906 14.515625 -1.046875 C 14.710938 -0.347656 15.316406 0 16.328125 0 L 17.4375 -0.15625 C 17.613281 -0.1875 17.78125 -0.210938 17.9375 -0.234375 C 18.09375 -0.253906 18.207031 -0.265625 18.28125 -0.265625 C 18.351562 -0.265625 18.445312 -0.253906 18.5625 -0.234375 C 18.6875 -0.210938 18.875 -0.171875 19.125 -0.109375 C 20.039062 -1.410156 20.601562 -2.875 20.8125 -4.5 C 21.019531 -6.132812 21.160156 -7.898438 21.234375 -9.796875 C 21.410156 -10.328125 21.539062 -10.863281 21.625 -11.40625 C 21.71875 -11.945312 21.765625 -12.519531 21.765625 -13.125 C 21.765625 -13.507812 21.71875 -14.085938 21.625 -14.859375 C 21.539062 -15.628906 21.445312 -16.421875 21.34375 -17.234375 L 21.34375 -17.171875 C 21.238281 -17.941406 21.128906 -18.6875 21.015625 -19.40625 C 20.910156 -20.132812 20.859375 -20.640625 20.859375 -20.921875 C 20.859375 -21.828125 20.984375 -22.65625 21.234375 -23.40625 C 21.484375 -24.164062 21.609375 -25.019531 21.609375 -25.96875 C 21.609375 -26.320312 21.5625 -26.820312 21.46875 -27.46875 C 21.382812 -28.125 21.296875 -28.789062 21.203125 -29.46875 C 21.117188 -30.15625 21.03125 -30.804688 20.9375 -31.421875 C 20.851562 -32.035156 20.8125 -32.46875 20.8125 -32.71875 C 20.8125 -33.695312 21.003906 -34.578125 21.390625 -35.359375 L 24.703125 -35.609375 C 25.484375 -35.890625 26.4375 -36.03125 27.5625 -36.03125 C 27.84375 -36.03125 28.175781 -36.015625 28.5625 -35.984375 C 28.945312 -35.953125 29.347656 -35.925781 29.765625 -35.90625 C 30.191406 -35.882812 30.597656 -35.859375 30.984375 -35.828125 C 31.367188 -35.796875 31.71875 -35.78125 32.03125 -35.78125 C 32.519531 -35.78125 32.957031 -35.796875 33.34375 -35.828125 C 33.738281 -35.859375 34.128906 -35.945312 34.515625 -36.09375 Z M 34.875 -36.5625 "/></g></g></g><g fill="#d9b567" fill-opacity="1"><g transform="translate(169.11525, 140.546244)"><g><path d="M 2.0625 -20.96875 C 2.0625 -19.28125 2.09375 -17.628906 2.15625 -16.015625 C 2.226562 -14.398438 2.332031 -12.800781 2.46875 -11.21875 L 2.265625 -2.265625 C 2.722656 -1.492188 3.195312 -0.921875 3.6875 -0.546875 C 4.175781 -0.179688 4.664062 0 5.15625 0 C 5.613281 0 5.972656 -0.113281 6.234375 -0.34375 C 6.503906 -0.570312 6.707031 -0.84375 6.84375 -1.15625 C 6.988281 -1.476562 7.085938 -1.820312 7.140625 -2.1875 C 7.191406 -2.550781 7.21875 -2.875 7.21875 -3.15625 C 7.21875 -3.332031 7.207031 -3.472656 7.1875 -3.578125 C 7.175781 -3.679688 7.171875 -3.769531 7.171875 -3.84375 L 7.171875 -5.953125 C 7.171875 -7.109375 7.160156 -8.503906 7.140625 -10.140625 C 7.117188 -11.773438 7.085938 -13.398438 7.046875 -15.015625 C 7.015625 -16.628906 6.988281 -18.101562 6.96875 -19.4375 C 6.957031 -20.769531 6.953125 -21.71875 6.953125 -22.28125 C 6.953125 -29.164062 7.425781 -34.925781 8.375 -39.5625 C 8.445312 -39.707031 8.488281 -39.832031 8.5 -39.9375 C 8.519531 -40.039062 8.53125 -40.179688 8.53125 -40.359375 C 8.53125 -41.484375 7.8125 -42.082031 6.375 -42.15625 C 6.125 -42.007812 5.828125 -41.9375 5.484375 -41.9375 C 5.335938 -41.9375 5.078125 -41.953125 4.703125 -41.984375 C 4.335938 -42.023438 4.085938 -42.046875 3.953125 -42.046875 C 3.109375 -42.046875 2.507812 -41.832031 2.15625 -41.40625 C 1.8125 -40.988281 1.640625 -40.289062 1.640625 -39.3125 C 1.640625 -37.625 1.988281 -36.234375 2.6875 -35.140625 C 2.269531 -29.867188 2.0625 -25.144531 2.0625 -20.96875 Z M 2.0625 -20.96875 "/></g></g></g><g fill="#d9b567" fill-opacity="1"><g transform="translate(185.52512, 140.546244)"><g><path d="M 23.96875 -27.609375 C 22.070312 -29.710938 20.179688 -31.554688 18.296875 -33.140625 C 16.421875 -34.722656 14.535156 -36.003906 12.640625 -36.984375 C 12.503906 -36.953125 12.390625 -36.914062 12.296875 -36.875 C 12.210938 -36.84375 12.132812 -36.8125 12.0625 -36.78125 L 12.0625 -36.828125 C 12.0625 -37.421875 11.945312 -37.875 11.71875 -38.1875 C 11.488281 -38.507812 11.15625 -38.773438 10.71875 -38.984375 C 10.28125 -39.203125 9.742188 -39.414062 9.109375 -39.625 C 8.484375 -39.832031 7.765625 -40.144531 6.953125 -40.5625 C 6.148438 -40.957031 5.351562 -41.320312 4.5625 -41.65625 C 3.769531 -41.988281 2.96875 -42.15625 2.15625 -42.15625 L 2.0625 -37.046875 C 2.40625 -35.078125 2.695312 -32.972656 2.9375 -30.734375 C 3.1875 -28.503906 3.3125 -26.144531 3.3125 -23.65625 L 3.3125 -16.859375 C 3.3125 -15.773438 3.3125 -14.6875 3.3125 -13.59375 C 3.3125 -12.5 3.332031 -11.425781 3.375 -10.375 C 3.019531 -10.0625 2.769531 -9.703125 2.625 -9.296875 C 2.488281 -8.890625 2.394531 -8.457031 2.34375 -8 C 2.289062 -7.550781 2.238281 -7.113281 2.1875 -6.6875 C 2.132812 -6.269531 2.035156 -5.898438 1.890625 -5.578125 L 1.890625 -5.265625 C 1.890625 -4.878906 1.8125 -4.421875 1.65625 -3.890625 C 1.5 -3.367188 1.421875 -2.789062 1.421875 -2.15625 C 1.421875 -1.84375 1.460938 -1.519531 1.546875 -1.1875 C 1.640625 -0.851562 1.828125 -0.492188 2.109375 -0.109375 C 2.285156 -0.109375 2.554688 -0.113281 2.921875 -0.125 C 3.296875 -0.144531 3.691406 -0.15625 4.109375 -0.15625 C 4.523438 -0.15625 4.9375 -0.160156 5.34375 -0.171875 C 5.75 -0.191406 6.078125 -0.203125 6.328125 -0.203125 C 6.742188 -0.203125 7.164062 -0.148438 7.59375 -0.046875 L 7.53125 -0.109375 C 7.738281 -0.00390625 8.039062 0.046875 8.4375 0.046875 C 8.675781 -0.367188 8.820312 -0.65625 8.875 -0.8125 C 8.925781 -0.96875 8.972656 -1.101562 9.015625 -1.21875 L 9.015625 -2.578125 C 9.015625 -2.898438 9.109375 -3.3125 9.296875 -3.8125 C 9.492188 -4.320312 9.59375 -4.804688 9.59375 -5.265625 C 9.59375 -5.585938 9.507812 -5.832031 9.34375 -6 C 9.1875 -6.175781 9.007812 -6.367188 8.8125 -6.578125 C 8.625 -6.796875 8.453125 -7.0625 8.296875 -7.375 C 8.140625 -7.6875 8.0625 -8.125 8.0625 -8.6875 C 8.0625 -9.007812 8.128906 -9.503906 8.265625 -10.171875 C 8.410156 -10.835938 8.570312 -11.554688 8.75 -12.328125 C 8.925781 -13.097656 9.082031 -13.84375 9.21875 -14.5625 C 9.363281 -15.28125 9.4375 -15.835938 9.4375 -16.234375 C 9.4375 -16.796875 9.378906 -17.320312 9.265625 -17.8125 C 12.609375 -18.96875 15.488281 -20.304688 17.90625 -21.828125 C 20.332031 -23.359375 22.351562 -25.054688 23.96875 -26.921875 Z M 9.21875 -25.34375 C 9.21875 -25.726562 9.164062 -26.304688 9.0625 -27.078125 C 8.957031 -27.847656 8.84375 -28.65625 8.71875 -29.5 C 8.59375 -30.34375 8.476562 -31.148438 8.375 -31.921875 C 8.269531 -32.703125 8.21875 -33.285156 8.21875 -33.671875 L 8.21875 -34.03125 L 8.640625 -33.984375 C 9.234375 -33.597656 9.800781 -33.203125 10.34375 -32.796875 C 10.894531 -32.390625 11.484375 -31.921875 12.109375 -31.390625 C 12.742188 -30.867188 13.445312 -30.273438 14.21875 -29.609375 C 15 -28.941406 15.914062 -28.132812 16.96875 -27.1875 C 14.46875 -25.425781 11.832031 -24.179688 9.0625 -23.453125 C 9.164062 -24.078125 9.21875 -24.707031 9.21875 -25.34375 Z M 9.21875 -25.34375 "/></g></g></g></svg>