<?xml version="1.0" standalone="no"?>
<!DOCTYPE svg PUBLIC "-//W3C//DTD SVG 20010904//EN"
 "http://www.w3.org/TR/2001/REC-SVG-20010904/DTD/svg10.dtd">
<svg version="1.0" xmlns="http://www.w3.org/2000/svg"
 width="500.000000pt" height="500.000000pt" viewBox="0 0 500.000000 500.000000"
 preserveAspectRatio="xMidYMid meet">
<metadata>
Created by potrace 1.14, written by Peter Selinger 2001-2017
</metadata>
<g transform="translate(0.000000,500.000000) scale(0.100000,-0.100000)"
fill="#000000" stroke="none">
<path d="M2460 4250 c-14 -4 -236 -70 -495 -145 -259 -76 -515 -151 -570 -167
-55 -16 -167 -49 -250 -73 -82 -24 -289 -85 -460 -135 -170 -50 -391 -114
-490 -142 -173 -49 -205 -61 -193 -73 3 -3 142 35 309 84 1441 424 2168 635
2189 634 14 0 203 -52 420 -116 1311 -385 2074 -606 2079 -602 9 10 -15 22
-79 39 -36 10 -270 78 -520 151 -427 126 -1123 329 -1662 486 -130 38 -240 69
-245 68 -4 0 -19 -4 -33 -9z"/>
<path d="M1970 4014 c-289 -84 -658 -192 -820 -239 -162 -47 -322 -94 -355
-105 -33 -10 -195 -58 -360 -105 -164 -48 -310 -91 -323 -96 -17 -6 -34 -4
-62 11 -45 23 -50 24 -50 10 0 -5 30 -25 67 -43 l67 -34 -3 -57 c-3 -62 -8
-58 82 -59 l37 -1 0 -113 c0 -94 -3 -113 -15 -113 -13 0 -15 -24 -15 -156 0
-155 6 -189 38 -208 12 -7 13 -30 8 -140 -3 -72 -8 -185 -11 -251 -3 -66 -7
-176 -10 -245 -3 -69 -7 -190 -10 -270 -3 -80 -8 -183 -10 -230 -2 -47 -7
-173 -11 -280 -3 -107 -8 -215 -10 -240 -1 -25 -3 -51 -3 -57 -1 -9 -18 -13
-50 -13 l-50 0 -3 -52 c-3 -58 4 -53 -80 -57 -16 -1 -18 -12 -18 -86 l0 -85
2499 0 2498 0 -2 82 c-2 89 -7 96 -66 92 -29 -2 -29 -1 -29 52 l0 54 -50 0
c-48 0 -50 1 -51 28 0 15 -2 45 -4 67 -1 22 -5 130 -9 240 -4 110 -9 223 -11
250 -2 28 -7 133 -10 235 -4 102 -8 223 -10 270 -2 47 -7 155 -10 240 -3 85
-8 207 -11 271 -5 96 -3 118 9 125 31 19 37 53 37 208 0 132 -2 156 -15 156
-12 0 -15 19 -15 114 l0 115 58 -2 57 -2 3 53 c2 37 -1 52 -10 52 -7 1 22 19
65 41 42 21 77 44 77 49 0 15 -11 12 -47 -10 l-32 -19 -138 41 c-76 22 -151
44 -168 48 -16 4 -68 19 -115 33 -47 14 -265 78 -485 142 -220 64 -443 129
-495 145 -52 15 -158 46 -235 69 -77 22 -279 81 -450 131 -170 50 -317 93
-325 95 -8 2 -251 -66 -540 -151z m1000 -4 c173 -50 351 -102 395 -115 44 -13
175 -52 290 -85 116 -34 253 -75 305 -90 52 -16 268 -78 480 -140 212 -61 400
-116 419 -122 l35 -11 -43 -20 -42 -20 -112 33 c-62 17 -148 43 -192 56 -44
13 -258 76 -475 139 -421 123 -474 139 -1095 321 -220 64 -416 118 -435 118
-19 0 -269 -69 -555 -153 -286 -84 -617 -181 -735 -216 -118 -34 -396 -115
-617 -179 l-401 -118 -37 17 c-20 10 -33 21 -28 25 4 4 105 36 223 70 118 34
283 81 365 105 83 24 519 152 969 283 l820 239 75 -22 c42 -13 218 -64 391
-115z m-126 -49 c187 -55 528 -154 756 -221 228 -67 568 -166 755 -221 187
-54 349 -103 360 -107 13 -6 -23 -8 -95 -7 -112 3 -122 5 -420 93 -634 187
-1519 446 -1610 470 l-96 26 -194 -57 c-107 -31 -379 -110 -605 -176 -225 -66
-588 -172 -805 -237 -392 -116 -396 -116 -509 -119 -63 -2 -108 1 -100 5 8 4
194 60 414 124 345 100 524 152 1120 327 55 16 228 67 385 113 157 46 289 85
294 85 5 1 162 -44 350 -98z m-103 -57 c123 -36 276 -80 339 -99 63 -18 268
-78 455 -133 187 -55 459 -134 604 -176 145 -42 270 -80 278 -84 7 -5 -853 -8
-1912 -8 -1059 0 -1922 3 -1918 7 5 4 112 37 238 74 308 90 345 100 686 200
162 48 346 101 409 120 139 40 413 121 495 145 33 10 69 19 81 19 11 1 121
-29 245 -65z m-287 -524 c44 0 82 2 84 4 2 2 17 0 33 -4 16 -5 29 -6 29 -2 0
4 20 7 45 7 25 0 45 -4 45 -8 0 -5 5 -5 12 -1 6 4 492 8 1080 9 l1068 1 0 -35
0 -36 -357 2 c-338 3 -2961 4 -3903 2 l-435 -1 -3 34 -3 34 1113 -3 c612 -1
1149 -3 1192 -3z m-2084 -92 c3 -3 5 -53 5 -110 l-1 -103 -52 -3 -52 -3 0 114
0 115 48 -1 c26 -1 49 -5 52 -9z m190 -105 l0 -113 -83 0 -84 0 2 113 c1 61 3
112 4 113 0 1 37 1 81 1 l80 0 0 -114z m124 12 c0 -55 -2 -106 -2 -112 -1 -9
-20 -13 -52 -13 l-50 0 0 114 0 113 53 -1 52 -1 -1 -100z m184 -12 l3 -113
-81 0 -80 0 0 113 0 113 78 -1 77 0 3 -112z m132 0 l0 -113 -55 0 -55 0 0 113
0 113 55 -1 55 0 0 -112z m178 -1 l3 -113 -82 3 -82 3 1 48 c0 26 1 75 1 110
l1 63 78 -1 77 0 3 -113z m132 1 l0 -113 -55 0 -55 0 0 108 c0 60 2 111 5 113
2 3 27 5 55 5 l50 -1 0 -112z m178 -1 l3 -112 -81 0 -80 0 0 108 c0 60 2 111
4 113 3 2 38 4 78 4 l73 0 3 -113z m130 0 l3 -112 -54 0 -53 0 1 113 c1 61 3
112 3 112 1 1 23 1 50 0 l47 0 3 -113z m183 94 c1 -24 1 -187 0 -198 -1 -5
-37 -8 -81 -8 l-80 0 0 113 0 112 80 1 c74 0 80 -1 81 -20z m122 15 c4 -1 7
-50 7 -111 l0 -110 -50 0 c-33 0 -51 4 -52 13 -5 44 -2 203 4 208 7 4 59 5 91
0z m192 -106 l0 -110 -82 -3 -83 -3 0 114 0 113 83 -1 82 0 0 -110z m125 -2
l0 -113 -50 0 -50 0 0 113 0 112 50 1 50 1 0 -114z m181 102 c5 -36 5 -174 2
-192 -5 -22 -10 -23 -84 -23 l-79 0 0 114 0 113 80 -1 c47 0 81 -5 81 -11z
m127 -103 l3 -112 -51 0 -50 0 0 113 0 114 48 -2 47 -1 3 -112z m192 0 l0
-113 -82 3 -83 3 0 105 c-1 58 3 108 7 111 5 3 42 5 83 5 l75 -1 0 -113z m120
1 l0 -113 -50 0 -50 0 0 113 0 113 50 0 50 1 0 -114z m183 108 c4 0 7 -50 7
-111 l0 -110 -83 0 -84 0 0 108 c0 59 4 110 9 113 7 5 120 5 151 0z m128 0 c4
-1 5 -185 0 -213 0 -5 -23 -8 -51 -8 l-50 0 0 109 c0 78 4 111 13 114 10 3 52
2 88 -2z m187 -109 l3 -112 -81 0 c-57 0 -80 4 -81 13 -1 13 -1 198 0 208 1 3
36 5 79 5 l77 -2 3 -112z m127 2 l0 -109 -52 -3 -53 -3 0 109 c0 60 3 111 6
114 3 4 27 5 52 4 l47 -2 0 -110z m185 -1 l0 -113 -80 0 -80 0 0 113 0 113 80
0 80 -1 0 -112z m128 -1 l3 -112 -56 0 -55 0 0 108 c0 60 2 111 5 113 2 3 26
5 52 4 l48 0 3 -113z m176 108 c4 -5 10 -154 7 -202 -1 -16 -12 -18 -81 -18
l-80 0 0 113 0 112 74 0 c41 0 77 -2 80 -5z m136 -107 l0 -113 -55 0 -55 0 0
114 0 113 55 -1 55 -1 0 -112z m180 1 l0 -114 -80 0 -80 0 0 113 0 113 80 0
80 1 0 -113z m130 -1 l0 -113 -49 0 c-39 0 -51 4 -54 18 -4 14 -2 205 2 208 0
0 24 0 51 0 l50 -1 0 -112z m181 98 c1 -22 1 -172 0 -193 -1 -16 -12 -18 -81
-18 l-80 0 0 113 0 113 80 0 c66 0 80 -2 81 -15z m129 -98 l0 -113 -53 0 -53
0 2 113 c1 61 2 113 3 114 0 1 24 1 51 0 l50 -1 0 -113z m30 -238 l0 -105
-2260 0 -2260 0 0 105 0 105 2260 0 2260 0 0 -105z m-4242 -125 c8 0 12 -5 10
-11 -4 -11 -276 -14 -287 -3 -17 17 41 20 277 14z m572 -7 c0 -10 -33 -13
-145 -13 -87 0 -145 4 -145 10 0 8 80 13 263 15 16 1 27 -5 27 -12z m311 -1
c0 -4 2 -22 4 -40 1 -18 13 -44 25 -57 23 -25 23 -54 5 -465 -2 -52 -7 -160
-10 -240 -3 -80 -7 -185 -10 -235 -3 -49 -8 -175 -11 -280 -4 -104 -8 -208 -9
-230 -2 -22 -3 -73 -4 -112 l-1 -73 -135 0 c-74 0 -135 3 -136 8 -2 28 -8 154
-14 312 -3 102 -8 223 -10 270 -2 47 -6 162 -10 255 -3 94 -8 202 -10 240 -2
39 -7 167 -11 285 -3 118 -8 218 -11 222 -2 4 10 20 26 35 23 21 31 38 33 68
l3 40 50 5 c65 7 235 1 236 -8z m625 -14 c1 -13 2 -31 3 -40 0 -9 12 -30 26
-47 17 -20 24 -37 21 -53 -3 -13 -8 -111 -11 -218 -3 -107 -8 -226 -10 -265
-2 -38 -7 -153 -11 -255 -3 -102 -7 -216 -9 -255 -2 -38 -6 -158 -10 -265 -4
-107 -9 -213 -10 -235 -1 -22 -3 -50 -4 -62 -1 -23 -3 -23 -136 -23 l-135 0
-1 53 c0 28 -2 59 -3 67 -2 8 -6 111 -10 229 -4 117 -9 243 -11 280 -2 36 -7
147 -10 246 -4 99 -8 214 -10 255 -2 41 -7 163 -10 270 -4 107 -9 197 -11 199
-1 2 10 14 26 28 21 17 31 37 36 68 7 52 4 51 174 48 113 -2 115 -2 116 -25z
m312 17 c14 -14 -17 -17 -144 -16 -136 2 -160 5 -137 19 13 8 273 6 281 -3z
m253 6 l46 -1 6 -47 c4 -35 12 -53 31 -68 27 -21 27 -22 22 -131 -3 -60 -8
-176 -11 -259 -5 -143 -10 -278 -20 -485 -2 -52 -7 -176 -10 -275 -4 -99 -8
-207 -10 -240 -2 -33 -5 -99 -6 -147 l-1 -88 -134 0 c-73 0 -135 3 -137 8 -3
4 -8 97 -11 207 -4 110 -9 232 -11 270 -3 39 -7 149 -10 245 -4 96 -8 211 -10
255 -2 44 -7 152 -10 240 -3 88 -8 208 -11 267 l-6 108 31 31 c24 23 31 39 31
69 0 44 6 46 120 43 36 -1 86 -2 111 -2z m349 -1 c18 0 21 -3 13 -11 -7 -7
-34 -11 -62 -11 -28 0 -91 1 -141 1 -49 1 -90 5 -90 10 0 14 22 16 144 14 61
-1 122 -2 136 -3z m291 1 c23 -1 27 -6 32 -42 3 -26 16 -52 32 -69 l27 -28 -7
-208 c-3 -114 -8 -233 -10 -263 -2 -31 -6 -144 -10 -251 -3 -107 -8 -224 -10
-260 -2 -36 -7 -150 -11 -255 -3 -104 -8 -215 -9 -245 -2 -30 -4 -70 -4 -87
l-1 -33 -135 0 c-74 0 -135 3 -136 8 -3 43 -8 159 -14 312 -3 102 -8 219 -10
260 -2 41 -6 161 -10 265 -4 105 -8 215 -10 245 -2 30 -6 143 -10 250 -4 107
-8 210 -10 229 -3 25 2 41 20 63 22 26 31 57 26 95 -2 12 92 20 189 16 25 -1
57 -2 71 -2z m347 -6 c3 -3 1 -9 -5 -13 -16 -10 -293 -3 -293 8 0 5 15 10 33
12 55 5 258 0 265 -7z m234 6 l77 -1 -1 -42 c0 -35 5 -47 31 -70 18 -16 30
-32 28 -36 -3 -4 -8 -104 -12 -222 -3 -118 -8 -240 -10 -270 -2 -30 -6 -140
-10 -245 -3 -104 -8 -221 -10 -260 -2 -38 -7 -153 -10 -255 -4 -102 -9 -210
-10 -240 -2 -30 -4 -65 -4 -77 -1 -23 -3 -23 -136 -23 l-135 0 -1 83 c-1 45
-2 98 -4 117 -1 19 -6 123 -9 230 -4 107 -9 227 -11 265 -3 39 -7 149 -10 245
-4 96 -8 207 -10 245 -2 39 -7 150 -10 248 -6 176 -6 179 16 203 13 14 23 38
24 61 2 33 6 39 30 43 16 3 47 4 69 3 23 -1 76 -2 118 -2z m386 -10 c4 -11 -6
-13 -48 -13 -162 0 -240 4 -240 12 0 18 282 20 288 1z m249 -33 c0 -33 6 -47
29 -67 l29 -26 -7 -175 c-3 -96 -9 -247 -12 -335 -4 -88 -9 -207 -11 -265 -3
-58 -7 -157 -10 -220 -14 -391 -19 -494 -24 -597 -1 -10 -28 -13 -100 -13 -55
0 -102 3 -104 7 -3 5 -8 96 -11 203 -4 107 -9 233 -11 280 -2 47 -7 148 -10
225 -5 137 -10 261 -20 500 -2 66 -7 184 -11 261 -5 118 -4 143 9 150 21 13
37 48 37 83 0 35 10 38 141 33 l86 -3 0 -41z m296 43 c10 -1 17 -6 15 -13 -3
-8 -44 -11 -143 -9 -77 1 -141 4 -143 6 -18 18 72 23 271 16z m-3963 -32 c0
-34 16 -70 37 -83 15 -8 15 3 -2 -401 -3 -60 -7 -171 -10 -245 -3 -74 -8 -191
-10 -260 -5 -124 -8 -179 -21 -525 -3 -99 -8 -183 -11 -187 -2 -5 -49 -8 -104
-8 -72 0 -99 3 -100 13 -3 57 -7 150 -13 312 -4 105 -9 224 -11 265 -2 41 -7
156 -10 255 -4 99 -8 209 -10 245 -2 36 -7 160 -11 275 -3 116 -7 216 -9 223
-1 8 11 27 27 42 25 26 34 56 29 98 -1 9 27 12 114 12 l115 0 0 -31z m940 21
c0 -6 -57 -10 -150 -10 -93 0 -150 4 -150 10 0 6 57 10 150 10 93 0 150 -4
150 -10z m-1190 -50 c0 -9 -9 -25 -21 -36 -18 -16 -37 -19 -126 -19 -98 0
-106 2 -124 24 -37 45 -30 48 126 48 128 -1 145 -3 145 -17z m560 0 c0 -37
-37 -54 -123 -56 -113 -4 -167 17 -167 64 0 5 65 9 145 9 129 0 145 -2 145
-17z m620 1 c0 -39 -36 -55 -128 -57 -48 -1 -98 3 -111 8 -25 9 -50 35 -51 53
0 6 56 11 145 12 132 1 145 -1 145 -16z m630 3 c0 -6 -9 -22 -19 -35 -18 -22
-26 -23 -124 -24 -89 0 -108 3 -126 19 -12 11 -21 27 -21 36 0 15 15 17 145
17 106 -1 145 -4 145 -13z m610 -5 c0 -9 -9 -24 -21 -35 -18 -16 -37 -19 -126
-19 -98 0 -106 2 -124 24 -38 47 -30 49 126 48 126 -1 145 -4 145 -18z m623 9
c-2 -5 -3 -15 -3 -24 0 -24 -58 -42 -135 -42 -88 -1 -129 12 -144 44 -6 14
-11 26 -11 28 0 1 66 2 148 2 81 -1 146 -4 145 -8z m617 0 c0 -5 0 -15 0 -23
0 -27 -57 -43 -151 -41 -92 1 -129 17 -129 56 0 16 14 17 140 16 77 0 140 -4
140 -8z m570 -1 c0 -21 -22 -46 -48 -55 -16 -5 -68 -9 -115 -8 -90 2 -127 18
-127 56 0 15 16 17 145 16 80 0 145 -4 145 -9z m-4455 -309 c-3 -128 -7 -300
-10 -383 -2 -82 -7 -283 -10 -445 -5 -238 -12 -498 -15 -542 0 -5 -10 -8 -21
-8 -21 0 -21 1 -15 203 4 111 9 238 11 282 2 44 6 143 9 220 3 77 8 199 11
270 3 72 7 189 10 260 12 307 17 375 31 375 3 0 2 -105 -1 -232z m169 186 c2
-21 7 -127 11 -234 3 -107 8 -224 10 -260 2 -36 6 -150 10 -255 3 -104 8 -219
10 -255 2 -36 7 -148 10 -250 3 -102 8 -213 10 -247 4 -61 4 -63 -20 -63 -25
0 -25 1 -26 93 0 50 -2 139 -4 197 -3 99 -7 262 -21 865 -3 143 -7 301 -9 350
-3 83 1 113 11 102 3 -2 6 -22 8 -43z m391 -226 c-3 -150 -8 -318 -10 -373 -2
-55 -7 -257 -11 -450 -4 -192 -8 -368 -9 -390 -1 -22 -3 -59 -4 -82 -1 -37 -4
-43 -22 -43 -21 0 -21 1 -15 198 4 108 9 235 11 282 9 178 15 331 20 495 3 94
8 206 10 250 3 44 8 145 11 225 6 138 9 160 20 160 3 0 3 -123 -1 -272z m621
-40 c-4 -172 -9 -358 -11 -413 -2 -55 -7 -248 -11 -430 -10 -494 -7 -455 -35
-455 -21 0 -21 2 -14 177 4 98 8 207 10 243 2 36 6 144 10 240 3 96 8 211 10
255 2 44 7 166 11 270 4 105 8 206 9 225 1 19 3 72 4 118 1 52 5 82 12 82 8 0
9 -86 5 -312z m629 224 c-2 -42 -6 -196 -9 -342 -6 -291 -15 -675 -21 -870 -2
-69 -4 -167 -4 -217 -1 -92 -1 -93 -26 -93 -24 0 -24 1 -20 73 2 39 7 158 10
262 4 105 9 217 10 250 2 33 6 148 10 255 4 107 9 222 10 255 2 33 7 146 11
250 6 165 9 223 13 258 1 5 5 6 10 3 5 -4 8 -41 6 -84z m169 -57 c8 -162 15
-336 21 -485 11 -294 16 -411 20 -490 2 -47 7 -170 10 -275 4 -104 8 -194 9
-200 0 -5 -9 -11 -21 -13 -19 -3 -23 1 -24 25 0 15 -2 60 -4 98 -1 39 -6 212
-10 385 -3 173 -8 367 -10 430 -13 444 -16 674 -6 665 5 -5 12 -68 15 -140z
m451 -123 c-3 -142 -8 -315 -10 -387 -2 -71 -7 -263 -10 -425 -13 -573 -10
-525 -34 -528 -19 -3 -25 6 -23 38 0 3 3 79 6 170 4 91 9 208 11 260 2 52 7
169 10 260 4 91 8 201 10 245 2 44 7 154 10 245 4 91 8 201 10 245 2 44 4 95
5 113 0 21 4 31 11 27 7 -5 8 -87 4 -263z m92 -374 c2 -343 5 -701 6 -795 l3
-173 -24 0 -24 0 6 558 c3 306 6 669 6 807 0 186 3 246 11 238 9 -9 13 -186
16 -635z m78 591 c2 -24 6 -120 10 -214 3 -93 8 -215 10 -270 14 -343 16 -409
20 -495 2 -52 7 -171 10 -265 4 -93 8 -203 10 -242 4 -72 4 -73 -20 -73 -25 0
-25 1 -25 98 -1 53 -3 153 -5 222 -5 163 -14 521 -21 840 -3 140 -7 296 -9
347 -2 82 1 111 12 99 2 -2 5 -23 8 -47z m456 -121 c-1 -84 -4 -198 -6 -253
-2 -55 -6 -247 -10 -427 -4 -180 -8 -349 -10 -375 -1 -26 -3 -123 -5 -215 l-2
-168 -25 0 -25 0 6 123 c9 173 15 308 21 492 4 88 8 203 10 255 2 52 7 176 11
275 4 99 8 205 9 235 2 30 4 95 4 145 1 69 4 86 13 77 8 -8 11 -56 9 -164z
m170 85 c1 -49 2 -101 4 -118 1 -16 6 -113 9 -215 4 -102 9 -219 11 -260 2
-41 6 -156 10 -255 3 -99 8 -214 10 -255 3 -41 7 -153 11 -247 6 -168 5 -173
-14 -173 -11 0 -22 6 -25 12 -2 7 -5 92 -6 188 -1 96 -4 236 -6 310 -5 142
-10 353 -21 818 -5 204 -3 282 5 282 7 0 11 -30 12 -87z m624 -73 c3 -85 8
-191 10 -235 2 -44 6 -159 10 -255 3 -96 8 -209 10 -250 2 -41 7 -151 10 -245
4 -93 8 -201 10 -240 10 -216 10 -220 -13 -223 -20 -3 -22 2 -23 40 -1 24 -3
63 -4 88 -1 25 -5 191 -9 370 -4 179 -9 384 -11 455 -17 500 -17 671 0 653 2
-2 6 -73 10 -158z m556 118 c0 -24 2 -68 3 -98 2 -30 6 -145 10 -255 4 -110 9
-222 11 -250 2 -27 7 -138 10 -245 4 -107 8 -222 10 -255 2 -33 7 -148 11
-255 3 -107 8 -198 11 -202 2 -5 -7 -8 -21 -8 -24 0 -26 4 -27 43 -1 23 -2 67
-4 97 -1 30 -5 199 -9 375 -4 176 -9 385 -11 465 -14 466 -16 630 -6 630 6 0
11 -19 12 -42z m-4365 -515 c-2 -302 -5 -662 -5 -800 l-1 -253 -24 0 -24 0 3
128 c6 197 14 559 21 862 3 151 7 311 9 355 2 44 3 119 4 168 1 55 5 87 12 87
8 0 9 -155 5 -547z m44 510 c1 -21 3 -301 6 -623 3 -322 6 -665 7 -763 l2
-177 -23 0 -24 0 6 533 c2 292 5 652 5 800 1 171 5 267 11 267 6 0 10 -17 10
-37z m41 5 c1 -18 2 -53 4 -78 1 -25 5 -196 9 -380 4 -184 9 -391 11 -460 3
-69 7 -243 11 -388 l5 -264 -23 4 -23 3 -2 220 c-8 912 -9 1375 -1 1375 4 0 8
-15 9 -32z m476 -580 c-4 -337 -6 -697 -7 -800 l0 -188 -24 0 -24 0 3 122 c5
167 14 530 21 838 3 140 7 307 9 370 2 63 4 150 4 193 1 49 5 77 12 77 8 0 10
-169 6 -612z m44 605 c0 -5 2 -244 5 -533 3 -289 6 -645 7 -792 l3 -268 -24 0
-24 0 6 503 c2 276 5 636 5 800 1 191 5 297 11 297 6 0 10 -3 11 -7z m45 -69
c4 -240 15 -731 19 -849 2 -77 7 -260 11 -407 6 -262 5 -268 -14 -268 -11 0
-22 8 -24 18 -3 9 -6 235 -7 502 -2 267 -4 619 -5 783 -1 200 1 296 8 294 6
-2 11 -35 12 -73z m40 44 c1 -74 15 -418 19 -488 2 -41 7 -158 11 -260 3 -102
7 -210 9 -240 2 -30 6 -143 10 -250 3 -107 8 -225 11 -263 4 -66 4 -67 -21
-67 -25 0 -25 1 -26 88 0 48 -2 150 -4 227 -5 184 -13 515 -21 850 -3 149 -7
305 -8 347 -2 43 -1 80 2 83 12 12 18 3 18 -27z m494 -348 c-1 -206 -3 -510
-5 -675 -2 -165 -4 -355 -4 -422 -1 -123 -1 -123 -25 -123 -23 0 -23 2 -20 73
1 39 5 194 8 342 9 416 17 741 21 840 2 50 4 148 4 218 1 85 5 127 11 125 8
-2 10 -125 10 -378z m41 348 c3 -71 6 -379 10 -958 l4 -605 -23 -3 -23 -3 5
458 c3 252 6 612 6 801 1 198 6 342 11 342 5 0 10 -15 10 -32z m46 0 c0 -37
15 -765 18 -843 1 -27 6 -202 10 -387 l7 -338 -21 0 c-11 0 -21 1 -22 3 0 1
-2 232 -5 512 -2 281 -6 639 -7 798 -3 220 -1 287 9 287 7 0 11 -13 11 -32z
m41 15 c-1 -27 12 -409 17 -478 2 -33 7 -136 10 -230 3 -93 8 -210 10 -260 3
-49 7 -155 10 -235 3 -80 8 -198 11 -262 6 -114 5 -118 -14 -118 -12 0 -23 3
-25 8 -3 4 -8 160 -12 347 -4 187 -9 375 -10 418 -2 44 -6 239 -10 435 -4 197
-7 359 -7 362 -1 19 3 30 11 30 6 0 9 -8 9 -17z m496 -295 c-1 -172 -3 -527
-5 -788 -1 -261 -4 -481 -7 -487 -2 -7 -13 -13 -24 -13 -21 0 -21 39 -3 685 2
72 7 270 11 440 12 500 10 475 22 475 5 0 8 -141 6 -312z m47 60 c0 -139 3
-499 5 -800 l6 -548 -24 0 -23 0 2 187 c1 104 4 463 7 798 3 336 5 611 6 613
0 1 5 2 10 2 6 0 10 -91 11 -252z m40 175 c0 -43 2 -134 4 -203 5 -188 14
-564 20 -845 3 -137 8 -301 10 -362 l4 -113 -25 0 -24 0 0 233 c0 127 -3 487
-7 800 -4 417 -3 567 6 567 7 0 11 -27 12 -77z m536 -475 c-4 -304 -7 -664 -7
-800 l0 -248 -24 0 -25 0 4 118 c5 157 13 496 21 837 3 154 7 330 9 390 2 61
4 143 4 183 1 47 5 72 12 72 9 0 10 -141 6 -552z m84 540 c3 -47 11 -334 24
-903 2 -88 7 -278 10 -422 l7 -263 -24 0 -23 0 -3 478 c-2 262 -5 622 -7 800
-2 198 0 322 6 322 5 0 9 -6 10 -12z m542 -270 c-2 -343 -12 -1288 -12 -1305
-1 -7 -10 -13 -22 -13 l-21 0 7 333 c4 182 8 382 10 442 3 99 18 711 19 793 0
17 5 32 11 32 7 0 10 -87 8 -282z m46 -145 c1 -236 4 -596 7 -800 l6 -373 -25
0 -25 0 3 177 c2 98 4 455 6 793 1 338 4 618 6 623 17 31 21 -45 22 -420z m42
320 c0 -60 2 -160 4 -223 2 -63 6 -232 9 -375 8 -371 17 -760 21 -833 2 -59 1
-62 -21 -62 -23 0 -24 3 -24 78 -1 373 -12 1491 -15 1505 -2 10 3 17 11 17 11
0 14 -22 15 -107z m493 26 c-1 -69 -5 -220 -20 -869 -4 -140 -8 -280 -9 -310
-1 -30 -3 -119 -4 -197 l-1 -143 -25 0 -26 0 5 78 c3 42 8 154 11 247 3 94 8
211 10 260 3 50 7 164 10 255 3 91 7 197 10 235 3 53 17 423 18 513 0 7 5 11
11 9 7 -2 10 -33 10 -78z m40 -201 c-1 -150 -3 -502 -5 -783 -1 -280 -4 -516
-7 -522 -2 -7 -13 -13 -24 -13 -20 0 -20 5 -14 263 4 144 9 325 11 402 2 77 7
286 11 465 10 480 10 474 22 466 5 -3 8 -128 6 -278z m46 -45 c1 -181 3 -541
6 -800 l6 -473 -25 0 -24 0 4 177 c1 98 5 457 7 798 3 341 5 621 5 623 1 1 6
2 11 2 6 0 10 -116 10 -327z m40 250 c1 -43 3 -134 5 -203 2 -69 6 -237 9
-375 6 -233 13 -534 21 -823 l3 -122 -24 0 -24 0 0 233 c0 127 -3 487 -7 800
-4 420 -3 567 6 567 7 0 11 -27 11 -77z m435 -26 c-4 -99 -11 -393 -21 -847
-3 -157 -7 -316 -9 -355 -2 -38 -4 -121 -4 -182 l-1 -113 -26 0 -26 0 6 73 c3
39 8 160 11 267 4 107 8 218 10 245 2 28 6 138 10 245 3 107 8 220 10 250 2
30 7 143 11 250 7 196 10 262 13 268 0 2 5 1 10 -2 5 -4 8 -48 6 -99z m39
-174 c-1 -153 -3 -507 -4 -788 -2 -280 -5 -516 -8 -522 -2 -7 -13 -13 -24 -13
-21 0 -21 38 -3 665 3 88 8 297 11 465 6 292 11 462 13 468 1 1 5 2 9 2 5 0 8
-125 6 -277z m46 20 c1 -142 3 -502 6 -800 l6 -543 -24 0 -23 0 2 212 c1 117
4 476 7 798 3 322 5 586 6 588 0 1 5 2 10 2 6 0 10 -93 10 -257z m41 175 c0
-46 2 -130 4 -188 2 -58 6 -217 9 -355 3 -137 9 -360 12 -495 3 -135 7 -298 9
-362 l3 -118 -24 0 -24 0 0 288 c-1 158 -3 518 -7 800 -4 375 -2 512 6 512 7
0 11 -29 12 -82z m104 -1580 l1 -38 -2279 0 -2279 0 3 33 c2 17 5 35 7 40 2 4
1026 6 2275 5 l2272 -3 0 -37z m88 -57 c13 -1 17 -10 17 -44 l0 -44 -2380 0
-2380 0 0 43 c0 32 4 43 17 46 14 2 4668 1 4726 -1z m104 -115 c4 -3 7 -33 9
-66 l2 -60 -2478 0 -2477 0 0 63 0 62 41 5 c60 7 4896 4 4903 -4z"/>
<path d="M2376 3362 c-3 -5 1 -9 9 -9 8 0 12 4 9 9 -3 4 -7 8 -9 8 -2 0 -6 -4
-9 -8z"/>
<path d="M2415 3360 c-3 -5 -1 -10 4 -10 6 0 11 5 11 10 0 6 -2 10 -4 10 -3 0
-8 -4 -11 -10z"/>
<path d="M2505 3362 c-2 -3 -2 -8 1 -13 5 -9 34 -1 34 10 0 8 -27 10 -35 3z"/>
<path d="M310 3186 c0 -51 4 -86 10 -86 12 0 11 -5 13 89 1 52 -2 76 -11 79
-9 3 -12 -18 -12 -82z"/>
<path d="M621 3190 c1 -44 5 -83 10 -86 9 -5 11 10 11 96 0 67 0 70 -12 70 -6
0 -10 -32 -9 -80z"/>
<path d="M940 3185 c0 -50 4 -85 10 -85 6 0 10 35 10 85 0 50 -4 85 -10 85 -6
0 -10 -35 -10 -85z"/>
<path d="M1241 3185 c1 -47 5 -85 10 -85 10 0 10 -1 11 70 1 85 -1 100 -12
100 -7 0 -10 -32 -9 -85z"/>
<path d="M1560 3185 c0 -50 4 -85 10 -85 6 0 10 35 10 85 0 50 -4 85 -10 85
-6 0 -10 -35 -10 -85z"/>
<path d="M1868 3263 c-10 -21 -1 -157 10 -161 9 -3 12 20 12 82 0 47 -4 86 -9
86 -6 0 -11 -3 -13 -7z"/>
<path d="M2188 3258 c-3 -12 -3 -80 1 -146 0 -13 6 -20 11 -17 12 8 13 175 1
175 -5 0 -11 -6 -13 -12z"/>
<path d="M2490 3185 c0 -50 4 -85 10 -85 6 0 10 35 10 85 0 50 -4 85 -10 85
-6 0 -10 -35 -10 -85z"/>
<path d="M2797 3264 c-9 -15 -2 -149 7 -154 6 -3 10 26 11 67 1 69 -6 106 -18
87z"/>
<path d="M3111 3186 c4 -111 24 -111 24 -1 0 55 -4 80 -13 83 -10 3 -13 -15
-11 -82z"/>
<path d="M3420 3185 c0 -50 4 -85 10 -85 6 0 10 35 10 85 0 50 -4 85 -10 85
-6 0 -10 -35 -10 -85z"/>
<path d="M3738 3258 c-3 -11 -3 -58 1 -140 1 -10 6 -18 11 -18 6 0 10 35 10
85 0 47 -4 85 -9 85 -5 0 -11 -6 -13 -12z"/>
<path d="M4040 3185 c0 -50 4 -85 10 -85 6 0 10 35 10 85 0 50 -4 85 -10 85
-6 0 -10 -35 -10 -85z"/>
<path d="M4358 3263 c-3 -7 -3 -81 1 -140 0 -13 6 -23 11 -23 6 0 10 35 10 85
0 47 -4 85 -9 85 -6 0 -11 -3 -13 -7z"/>
<path d="M4669 3253 c-2 -22 -2 -112 0 -135 0 -10 6 -18 11 -18 6 0 10 35 10
85 0 50 -4 85 -10 85 -5 0 -11 -8 -11 -17z"/>
</g>
</svg>
