<?xml version="1.0" standalone="no"?>
<!DOCTYPE svg PUBLIC "-//W3C//DTD SVG 20010904//EN"
 "http://www.w3.org/TR/2001/REC-SVG-20010904/DTD/svg10.dtd">
<svg version="1.0" xmlns="http://www.w3.org/2000/svg"
 width="500.000000pt" height="500.000000pt" viewBox="0 0 500.000000 500.000000"
 preserveAspectRatio="xMidYMid meet">
<metadata>
Created by potrace 1.14, written by Peter Selinger 2001-2017
</metadata>
<g transform="translate(0.000000,500.000000) scale(0.100000,-0.100000)"
fill="#000000" stroke="none">
<path d="M1365 3799 c-616 -181 -1137 -334 -1157 -339 -21 -6 -38 -14 -38 -18
0 -4 37 -26 82 -48 l83 -41 -3 -51 -4 -51 54 -3 53 -3 3 -102 c2 -87 0 -103
-13 -103 -13 0 -15 -22 -15 -149 0 -133 2 -151 20 -174 17 -21 20 -40 20 -120
0 -51 -3 -135 -6 -185 l-7 -90 -40 -18 c-51 -23 -120 -90 -148 -145 -31 -60
-38 -191 -15 -253 26 -67 70 -122 131 -162 43 -29 54 -41 50 -58 -2 -11 -6
-109 -10 -216 -3 -107 -8 -230 -11 -273 l-7 -77 -43 0 -43 0 -3 -47 -3 -48
-42 -3 -43 -3 0 -69 0 -69 -107 -4 c-60 -1 1019 -3 2397 -3 1378 0 2456 2
2395 5 l-110 6 -3 67 -3 67 -42 3 -42 3 -3 48 -3 47 -45 0 c-43 0 -44 1 -44
33 0 17 -7 183 -15 367 -8 184 -15 342 -15 350 0 10 16 20 47 28 88 24 153
114 153 212 -1 81 -82 183 -157 195 -21 4 -43 8 -49 10 -7 2 -14 68 -18 190
-7 181 -7 188 13 209 19 21 21 34 21 174 0 95 -4 152 -10 152 -6 0 -10 42 -10
105 l0 105 56 0 56 0 -4 54 -4 54 78 38 c43 21 78 41 78 45 0 4 -15 12 -32 18
-67 21 -2264 662 -2283 666 -11 2 -524 -145 -1140 -326z m2271 -19 c621 -181
1136 -333 1144 -336 11 -4 3 -12 -27 -27 l-41 -20 -1100 321 c-605 177 -1106
322 -1113 322 -8 0 -510 -144 -1116 -321 l-1102 -322 -41 18 c-22 10 -38 21
-34 24 7 8 2263 669 2285 670 9 1 524 -147 1145 -329z m-51 -70 c589 -172
1078 -316 1088 -319 16 -6 12 -10 -22 -25 l-40 -19 -1052 308 c-627 183 -1062
305 -1078 303 -14 -2 -493 -141 -1064 -308 l-1037 -304 -36 18 c-20 9 -34 19
-31 22 9 9 2181 643 2192 640 6 -2 492 -144 1080 -316z m-64 -60 c547 -159
1003 -294 1014 -299 14 -7 -8 -10 -75 -10 l-95 -1 -924 270 c-508 149 -933
270 -944 270 -12 0 -437 -121 -945 -270 -910 -266 -924 -270 -1014 -270 -50 0
-88 3 -84 7 14 14 2032 601 2052 597 12 -2 468 -134 1015 -294z m-150 -35
c481 -140 883 -259 894 -264 12 -6 -661 -10 -1764 -10 -981 -1 -1781 2 -1777
6 5 5 1743 519 1767 522 3 1 399 -114 880 -254z m1279 -320 l0 -35 -2155 0
-2155 0 0 35 0 35 2155 0 2155 0 0 -35z m-4100 -150 l0 -105 -50 0 -50 0 0
105 0 105 50 0 50 0 0 -105z m170 0 l0 -105 -80 0 -80 0 0 98 c0 54 3 102 7
105 3 4 39 7 80 7 l73 0 0 -105z m118 -2 l3 -103 -56 0 -55 0 0 98 c0 54 3
102 7 106 4 4 28 6 53 4 l45 -3 3 -102z m170 0 l3 -103 -81 0 -80 0 0 105 0
106 78 -3 77 -3 3 -102z m112 2 l0 -105 -50 0 -50 0 0 105 0 105 50 0 50 0 0
-105z m170 0 l0 -105 -75 0 -75 0 0 105 0 105 75 0 75 0 0 -105z m118 -2 l3
-103 -56 0 -55 0 0 98 c0 54 3 102 7 106 4 4 28 6 53 4 l45 -3 3 -102z m170 0
l3 -103 -81 0 -80 0 0 105 0 106 78 -3 77 -3 3 -102z m112 2 l0 -105 -50 0
-50 0 0 105 0 105 50 0 50 0 0 -105z m170 0 l0 -105 -75 0 -75 0 0 105 0 105
75 0 75 0 0 -105z m120 0 l0 -105 -55 0 -55 0 0 98 c0 54 3 102 7 105 3 4 28
7 55 7 l48 0 0 -105z m168 -2 l3 -103 -81 0 -80 0 0 105 0 106 78 -3 77 -3 3
-102z m112 2 l0 -105 -50 0 -50 0 0 105 0 105 50 0 50 0 0 -105z m170 0 l0
-105 -75 0 -75 0 0 105 0 105 75 0 75 0 0 -105z m120 0 l0 -105 -50 0 -50 0 0
105 0 105 50 0 50 0 0 -105z m168 -2 l3 -103 -81 0 -80 0 0 105 0 106 78 -3
77 -3 3 -102z m112 2 l0 -105 -50 0 -50 0 0 105 0 105 50 0 50 0 0 -105z m170
0 l0 -105 -75 0 -75 0 0 105 0 105 75 0 75 0 0 -105z m120 0 l0 -105 -50 0
-50 0 0 105 0 105 50 0 50 0 0 -105z m170 0 l0 -105 -80 0 -80 0 0 105 0 105
80 0 80 0 0 -105z m110 0 l0 -105 -50 0 -50 0 0 105 0 105 50 0 50 0 0 -105z
m170 0 l0 -105 -75 0 -75 0 0 105 0 105 75 0 75 0 0 -105z m120 0 l0 -105 -50
0 -50 0 0 105 0 105 50 0 50 0 0 -105z m170 0 l0 -105 -80 0 -80 0 0 105 0
105 80 0 80 0 0 -105z m110 0 l0 -105 -50 0 -50 0 0 105 0 105 50 0 50 0 0
-105z m170 0 l0 -105 -75 0 -75 0 0 105 0 105 75 0 75 0 0 -105z m120 0 l0
-105 -50 0 -50 0 0 105 0 105 50 0 50 0 0 -105z m170 0 l0 -105 -80 0 -80 0 0
98 c0 54 3 102 7 105 3 4 39 7 80 7 l73 0 0 -105z m118 -2 l3 -103 -56 0 -55
0 0 106 0 105 53 -3 52 -3 3 -102z m22 -218 l0 -95 -2075 0 -2075 0 0 95 0 95
2075 0 2075 0 0 -95z m-3870 -125 c0 -6 -53 -10 -140 -10 -87 0 -140 4 -140
10 0 6 53 10 140 10 87 0 140 -4 140 -10z m220 -15 c0 -29 24 -81 39 -87 7 -2
0 -265 -19 -728 -16 -399 -30 -733 -30 -742 0 -16 -11 -18 -95 -18 -68 0 -97
4 -100 13 -2 6 -8 122 -13 257 l-9 245 26 22 25 22 -27 29 c-27 29 -28 30 -34
211 l-6 182 34 35 c32 34 33 37 15 48 -57 35 -56 28 -63 227 l-6 185 26 27
c19 18 27 37 27 62 l0 35 105 0 105 0 0 -25z m290 15 c0 -6 -52 -10 -135 -10
-83 0 -135 4 -135 10 0 6 52 10 135 10 83 0 135 -4 135 -10z m280 -15 c0 -29
24 -81 39 -87 6 -2 -1 -267 -19 -728 -17 -399 -30 -733 -30 -742 0 -16 -13
-18 -125 -18 -69 0 -125 1 -126 3 -2 13 -27 653 -24 655 1 2 28 -38 60 -88
l57 -90 84 0 85 0 -12 23 c-7 12 -36 59 -65 103 l-52 82 44 30 c128 91 114
290 -26 362 -20 10 -71 21 -116 25 l-81 7 -7 181 -7 180 26 26 c17 19 25 38
25 64 l0 37 135 0 135 0 0 -25z m290 15 c0 -6 -52 -10 -135 -10 -83 0 -135 4
-135 10 0 6 52 10 135 10 83 0 135 -4 135 -10z m290 -27 c0 -23 7 -45 20 -58
20 -21 21 -30 14 -209 l-7 -186 -172 0 -172 0 -7 181 -7 181 25 27 c18 19 26
38 26 64 l0 37 140 0 140 0 0 -37z m280 27 c0 -6 -52 -10 -135 -10 -83 0 -135
4 -135 10 0 6 52 10 135 10 83 0 135 -4 135 -10z m280 -27 c0 -26 8 -45 26
-65 l27 -27 -10 -198 -9 -198 -154 -283 c-84 -155 -154 -281 -157 -279 -2 2
-12 219 -23 482 l-19 478 24 23 c15 13 27 39 31 63 l7 41 128 0 129 0 0 -37z
m290 27 c0 -6 -53 -10 -140 -10 -87 0 -140 4 -140 10 0 6 53 10 140 10 87 0
140 -4 140 -10z m280 -25 c0 -25 8 -44 25 -61 23 -23 25 -32 25 -118 0 -51 -3
-134 -6 -184 l-7 -92 -48 0 -49 0 0 -80 0 -80 45 0 45 0 0 -42 c1 -78 -32
-883 -36 -895 -2 -10 -37 -13 -128 -13 l-124 0 -6 178 c-4 97 -9 205 -12 240
l-6 62 46 0 c25 0 46 2 46 4 0 2 -21 44 -47 92 l-48 89 -16 405 -16 405 24 28
c14 18 23 42 23 63 l0 34 135 0 135 0 0 -35z m290 25 c0 -6 -53 -10 -140 -10
-87 0 -140 4 -140 10 0 6 53 10 140 10 87 0 140 -4 140 -10z m280 -25 c0 -26
8 -44 27 -63 l27 -27 -28 -725 c-15 -399 -29 -731 -31 -737 -6 -18 -244 -18
-249 0 -4 12 -37 817 -36 895 l0 42 65 0 65 0 0 80 0 80 -69 0 -68 0 -7 92
c-3 50 -6 134 -6 185 0 80 3 99 20 120 11 14 20 41 20 59 l0 34 135 0 135 0 0
-35z m290 25 c0 -6 -53 -10 -140 -10 -87 0 -140 4 -140 10 0 6 53 10 140 10
87 0 140 -4 140 -10z m220 -15 c0 -32 24 -81 44 -88 13 -5 14 -29 10 -149 -3
-79 -7 -162 -10 -185 -5 -41 -7 -43 -40 -43 l-34 0 0 -315 0 -315 26 0 25 0
-5 -92 c-3 -51 -9 -159 -12 -240 l-6 -148 -94 0 c-67 0 -96 4 -99 13 -4 14
-55 1310 -55 1405 0 49 5 70 20 89 11 14 20 41 20 59 l0 34 105 0 105 0 0 -25z
m290 15 c0 -6 -52 -10 -135 -10 -83 0 -135 4 -135 10 0 6 52 10 135 10 83 0
135 -4 135 -10z m-3877 -50 c-10 -38 -42 -50 -133 -50 -91 0 -123 12 -133 50
-5 19 -1 20 133 20 134 0 138 -1 133 -20z m517 6 c0 -8 -12 -24 -26 -35 -46
-36 -209 -27 -236 13 -22 32 -9 36 127 36 110 0 135 -3 135 -14z m570 4 c0 -6
-11 -22 -25 -36 -25 -25 -30 -26 -121 -22 -81 2 -98 6 -110 22 -31 43 -22 46
121 46 87 0 135 -4 135 -10z m570 -2 c-1 -40 -43 -58 -138 -58 -65 0 -84 4
-106 21 -53 42 -38 49 109 49 101 0 135 -3 135 -12z m558 -10 c-5 -34 -44 -48
-136 -48 -75 0 -85 2 -107 25 -14 13 -25 29 -25 35 0 6 48 10 136 10 134 0
135 0 132 -22z m575 2 c-10 -38 -42 -50 -133 -50 -91 0 -123 12 -133 50 -5 19
-1 20 133 20 134 0 138 -1 133 -20z m570 0 c-10 -38 -42 -50 -133 -50 -91 0
-123 12 -133 50 -5 19 -1 20 133 20 134 0 138 -1 133 -20z m517 10 c0 -6 -11
-22 -25 -36 -25 -25 -30 -26 -121 -22 -81 2 -98 6 -110 22 -31 43 -22 46 121
46 87 0 135 -4 135 -10z m-4080 -212 c0 -157 -7 -218 -24 -218 -7 0 -10 28 -8
87 4 162 14 273 23 273 5 0 9 -64 9 -142z m40 -32 c0 -145 -2 -175 -15 -180
-13 -5 -15 16 -15 152 0 158 5 202 21 202 5 0 9 -78 9 -174z m40 -7 c0 -144
-2 -169 -15 -169 -13 0 -15 25 -15 168 0 93 3 172 6 175 19 18 24 -20 24 -174z
m34 165 c3 -9 6 -90 6 -181 0 -127 -3 -164 -12 -161 -10 4 -14 51 -16 181 -2
161 4 208 22 161z m40 -66 c13 -190 13 -288 1 -288 -17 0 -25 78 -25 238 0
147 15 178 24 50z m357 -103 c-2 -122 -6 -182 -14 -187 -6 -4 -13 -5 -15 -3
-10 10 11 376 21 372 7 -2 10 -63 8 -182z m39 0 c0 -165 -2 -185 -17 -185 -14
0 -15 14 -10 137 4 75 7 158 7 185 0 26 5 48 10 48 6 0 10 -68 10 -185z m40 0
c0 -165 -2 -185 -17 -185 -14 0 -15 12 -10 113 4 61 7 145 7 185 0 41 4 72 10
72 6 0 10 -68 10 -185z m40 61 c0 -67 3 -151 6 -185 6 -50 4 -61 -8 -61 -13 0
-16 29 -21 177 -3 98 -3 181 -1 185 17 27 24 -6 24 -116z m34 112 c3 -7 7 -91
11 -185 5 -152 4 -173 -10 -173 -12 0 -15 15 -15 78 0 44 -3 127 -7 185 -4 79
-3 107 6 107 6 0 13 -6 15 -12z m417 -139 c-1 -79 -8 -403 -16 -719 -8 -316
-15 -583 -15 -593 0 -13 -6 -18 -22 -15 -22 3 -23 6 -20 88 2 47 14 366 27
710 14 343 25 637 25 653 0 17 5 27 12 25 8 -3 10 -47 9 -149z m39 -251 c0
-222 -3 -555 -7 -741 -6 -335 -6 -338 -27 -335 -20 3 -21 8 -18 123 1 66 7
320 12 565 13 607 21 790 31 790 5 0 9 -173 9 -402z m43 -10 c4 -227 7 -561 7
-741 0 -326 0 -328 -21 -325 -20 3 -20 4 -20 598 1 592 8 880 21 880 4 0 10
-186 13 -412z m37 335 c0 -43 7 -332 15 -643 20 -761 20 -760 -4 -760 -16 0
-19 10 -24 68 -5 52 -12 1372 -8 1405 1 4 6 7 11 7 6 0 10 -33 10 -77z m43
-104 c4 -111 3 -181 -3 -194 -5 -11 -11 -63 -13 -115 -2 -54 -4 -22 -5 76 -1
94 -5 226 -9 294 -5 103 -4 122 8 118 11 -4 16 -43 22 -179z m413 89 c-3 -50
-6 -133 -6 -185 0 -80 -2 -93 -17 -93 -14 0 -15 12 -10 107 4 58 7 141 7 185
0 66 3 78 16 78 15 0 16 -11 10 -92z m35 -508 c-1 -327 -4 -659 -8 -737 -6
-134 -7 -143 -26 -143 -19 0 -20 6 -15 237 3 168 8 238 16 241 16 5 16 139 0
144 -9 3 -9 58 -1 239 6 129 10 261 9 294 -2 165 5 326 15 323 7 -2 10 -187
10 -598z m42 383 c4 -120 7 -453 7 -740 0 -516 0 -523 -20 -523 -20 0 -20 7
-20 403 0 494 11 1077 20 1077 4 0 10 -98 13 -217z m37 190 c0 -16 7 -287 15
-603 21 -855 21 -844 -2 -848 -19 -3 -20 7 -26 260 -11 416 -9 1218 3 1218 6
0 10 -12 10 -27z m40 -11 c0 -21 11 -319 25 -662 13 -344 26 -659 27 -700 3
-71 2 -75 -20 -78 -18 -3 -22 1 -23 25 0 15 -8 345 -18 733 -10 388 -16 708
-14 713 11 19 23 3 23 -31z m419 -54 c-1 -51 -5 -147 -8 -213 -6 -104 -8 -116
-18 -93 -12 26 -9 284 3 366 10 66 24 30 23 -60z m41 -21 c0 -56 -3 -167 -7
-246 -5 -122 -8 -140 -19 -120 -9 18 -11 78 -7 239 5 226 7 245 23 235 6 -3
10 -50 10 -108z m34 97 c3 -9 6 -142 6 -297 -1 -250 -2 -279 -15 -257 -11 20
-14 80 -15 298 0 247 5 305 24 256z m40 -106 c9 -208 16 -558 10 -558 -3 0
-12 16 -20 35 -11 27 -14 96 -14 340 0 310 13 411 24 183z m36 95 c0 -16 7
-179 15 -363 8 -184 14 -348 14 -365 l0 -30 -19 35 c-16 32 -19 72 -26 393 -5
266 -4 357 5 357 6 0 11 -12 11 -27z m420 -105 c0 -160 -8 -238 -25 -238 -12
0 -12 98 1 288 9 128 24 97 24 -50z m40 -53 c0 -158 -2 -185 -15 -185 -13 0
-15 25 -15 169 0 93 3 176 6 185 17 45 24 -2 24 -169z m40 -6 c0 -152 -2 -179
-15 -179 -13 0 -15 26 -15 178 0 98 3 182 6 185 19 19 24 -21 24 -184z m34
169 c3 -13 6 -96 6 -185 0 -138 -2 -163 -15 -163 -13 0 -15 27 -15 185 0 169
8 222 24 163z m40 -70 c12 -201 13 -278 0 -278 -6 0 -14 21 -18 46 -9 71 -7
324 3 324 5 0 12 -42 15 -92z m416 60 c1 -99 -32 -1425 -35 -1435 -3 -7 -14
-13 -25 -13 -11 0 -20 6 -20 13 0 43 51 1317 56 1385 3 45 10 82 15 82 5 0 9
-15 9 -32z m40 -152 c0 -154 -2 -185 -15 -190 -13 -5 -15 19 -15 178 0 100 3
186 7 189 19 20 23 -9 23 -177z m40 -7 c0 -152 -2 -179 -15 -179 -13 0 -15 26
-15 178 0 98 3 182 6 185 19 19 24 -21 24 -184z m34 160 c3 -17 6 -101 6 -185
0 -130 -2 -154 -15 -154 -13 0 -15 27 -15 185 0 172 9 229 24 154z m40 -61
c12 -201 13 -278 0 -278 -6 0 -14 17 -18 38 -9 58 -7 332 3 332 5 0 12 -42 15
-92z m360 74 c-1 -7 -2 -88 -2 -182 -2 -144 -4 -170 -17 -170 -17 0 -19 40 -8
243 4 85 10 126 17 124 6 -2 11 -9 10 -15z m36 -167 c0 -158 -2 -185 -15 -185
-12 0 -15 13 -15 58 0 119 13 312 22 312 4 0 8 -83 8 -185z m40 0 c0 -158 -2
-185 -15 -185 -12 0 -15 14 -15 63 0 121 13 307 22 307 4 0 8 -83 8 -185z m40
46 c0 -76 3 -159 6 -185 5 -37 4 -46 -8 -46 -13 0 -16 30 -22 175 -4 96 -5
179 -1 185 19 30 25 -2 25 -129z m40 46 c0 -52 3 -135 6 -185 6 -81 5 -92 -10
-92 -13 0 -16 11 -16 63 0 35 -3 119 -7 185 -5 109 -4 122 10 122 15 0 17 -13
17 -93z m-485 -742 c8 -225 18 -463 21 -528 l7 -119 -24 4 c-24 3 -24 3 -29
173 -5 162 1 926 6 895 2 -8 10 -199 19 -425z m-3072 -473 c-5 -169 -6 -173
-27 -170 -18 3 -21 9 -19 43 1 22 10 258 20 525 l18 485 7 -355 c4 -195 5
-433 1 -528z m2907 308 c6 0 10 -89 10 -240 l0 -240 -26 0 -27 0 6 173 c4 94
10 332 14 527 l8 355 3 -287 c1 -181 6 -288 12 -288z m-3353 428 c-4 -46 -7
-129 -7 -185 0 -85 -3 -103 -15 -103 -13 0 -15 26 -15 178 0 98 3 182 7 185 3
4 13 7 21 7 13 0 14 -13 9 -82z m43 -103 c0 -158 -2 -185 -15 -185 -13 0 -15
27 -15 185 0 158 2 185 15 185 13 0 15 -27 15 -185z m-90 92 c0 -46 -3 -125
-6 -175 -6 -74 -10 -89 -22 -85 -12 5 -14 30 -10 163 3 87 8 163 12 169 18 28
26 5 26 -72z m138 -86 c1 -101 -1 -168 -8 -175 -5 -5 -11 -8 -14 -5 -2 2 -6
82 -8 177 -5 155 -3 173 11 170 14 -3 16 -26 19 -167z m509 47 c-2 -24 -4 -7
-4 37 0 44 2 63 4 43 2 -21 2 -57 0 -80z m51 29 c2 -61 0 -77 -11 -77 -11 0
-16 19 -20 73 -5 76 -2 90 16 84 7 -2 13 -33 15 -80z m142 70 c30 -15 45 -54
36 -91 -8 -33 -56 -56 -115 -56 -47 0 -51 8 -51 96 l0 64 53 0 c28 0 63 -6 77
-13z m770 -42 l0 -55 -110 0 -110 0 0 55 0 55 110 0 110 0 0 -55z m44 37 c-1
-7 -2 -84 -2 -172 -2 -153 -3 -160 -22 -160 -17 0 -20 7 -20 49 0 34 4 51 15
55 11 4 15 22 15 71 0 37 -4 65 -10 65 -11 0 -14 93 -3 104 10 9 28 1 27 -12z
m2273 -94 c-2 -24 -4 -7 -4 37 0 44 2 63 4 43 2 -21 2 -57 0 -80z m48 47 c8
-70 2 -99 -18 -93 -8 3 -13 31 -15 81 -2 62 0 77 12 77 10 0 16 -18 21 -65z
m45 -15 c0 -64 -3 -80 -15 -80 -12 0 -15 16 -15 80 0 64 3 80 15 80 12 0 15
-16 15 -80z m48 -3 c2 -61 0 -77 -11 -77 -10 0 -16 20 -21 71 -6 73 -3 93 17
86 7 -2 13 -33 15 -80z m56 62 c46 -36 28 -129 -26 -129 -16 0 -18 9 -18 75 0
41 4 75 9 75 4 0 20 -9 35 -21z m-3943 -1 c6 -61 13 -308 9 -308 -25 1 -30 26
-37 168 -5 137 -5 152 10 152 10 0 18 -6 18 -12z m-239 -238 l-8 -55 -26 40
c-50 75 -46 167 11 228 l26 28 3 -93 c1 -51 -1 -118 -6 -148z m2852 -7 c-3
-137 -9 -349 -13 -473 l-6 -225 -24 -3 -24 -4 6 119 c4 65 11 255 17 423 13
370 17 410 36 410 13 0 14 -34 8 -247z m36 -223 c6 0 10 -90 10 -240 l0 -240
-26 0 -27 0 7 178 c3 97 9 312 13 477 l8 300 3 -237 c1 -147 6 -238 12 -238z
m171 23 c23 -561 24 -505 -3 -501 -23 3 -23 6 -28 183 -6 203 0 768 8 761 3
-3 13 -202 23 -443z m-781 220 c0 -25 -4 -33 -17 -33 -15 0 -17 8 -14 52 3 47
4 50 17 33 8 -10 14 -34 14 -52z m-54 -30 c-11 -11 -17 4 -9 23 7 18 8 18 11
1 2 -10 1 -21 -2 -24z m-566 -23 l0 -50 -105 0 -105 0 0 50 0 50 105 0 105 0
0 -50z m645 30 c3 -5 1 -10 -4 -10 -6 0 -11 5 -11 10 0 6 2 10 4 10 3 0 8 -4
11 -10z m-1576 -542 c1 -148 0 -158 -18 -158 -16 0 -19 11 -25 92 -10 143 -7
388 4 388 6 0 10 38 10 93 0 52 3 97 8 101 8 8 19 -261 21 -516z m44 375 c4
-82 10 -235 13 -340 7 -191 7 -193 -14 -193 -18 0 -21 8 -26 83 -3 45 -8 198
-11 340 -5 246 -4 257 13 257 17 0 19 -13 25 -147z m3265 -196 l2 -338 -22 3
c-18 2 -23 9 -22 31 0 15 1 167 2 338 2 290 3 310 20 307 16 -3 17 -29 20
-341z m45 336 c3 -5 8 -158 12 -340 7 -328 7 -333 -12 -333 -29 0 -33 45 -33
386 0 249 2 294 14 294 8 0 17 -3 19 -7z m58 -123 c4 -69 10 -221 14 -337 7
-210 7 -213 -13 -213 -26 0 -29 34 -37 403 -5 263 -5 278 12 275 16 -3 19 -19
24 -128z m-158 -218 c-6 -330 -6 -333 -27 -330 -16 2 -21 10 -20 31 0 15 1
120 2 233 2 197 3 206 22 211 18 5 20 14 20 101 0 52 2 93 5 91 2 -3 1 -154
-2 -337z m-1758 223 c-9 -297 -17 -506 -21 -527 l-6 -28 -123 0 -123 0 -6 128
c-4 70 -9 178 -12 240 l-6 112 84 0 84 0 22 46 c22 44 23 45 65 42 23 -2 42
-7 42 -13z m48 8 c3 -5 2 -132 -2 -283 l-6 -275 -24 -3 -24 -4 7 184 c11 313
17 388 32 388 7 0 15 -3 17 -7z m55 -275 l-3 -283 -24 -3 -24 -4 8 279 c4 153
9 281 12 286 2 4 11 7 19 7 12 0 14 -41 12 -282z m55 6 c4 -148 5 -274 3 -281
-3 -7 -15 -13 -26 -13 -20 0 -20 5 -20 278 0 153 3 282 7 286 23 23 28 -16 36
-270z m-2119 99 c3 -65 9 -180 12 -256 l7 -139 -24 4 -24 3 -7 244 c-8 242 -6
260 23 261 4 0 9 -53 13 -117z m2177 -154 l4 -234 -22 -3 -23 -3 0 255 c0 250
0 256 19 237 17 -17 19 -40 22 -252z m-2397 17 c-3 -127 -7 -237 -10 -243 -2
-7 -13 -13 -25 -13 -21 0 -21 2 -15 143 15 347 16 355 37 350 18 -5 19 -15 13
-237z m166 141 c0 -52 3 -162 7 -245 l6 -152 -26 0 -27 0 0 245 c0 238 1 245
20 245 19 0 20 -7 20 -93z m-110 -157 l0 -240 -27 0 -26 0 6 143 c4 78 7 186
7 240 0 90 1 97 20 97 19 0 20 -7 20 -240z m60 0 l0 -240 -25 0 -25 0 0 233
c0 129 3 237 7 240 3 4 15 7 25 7 17 0 18 -14 18 -240z m456 194 c-3 -26 -6
-134 -6 -241 0 -193 0 -194 -21 -191 -22 3 -22 5 -20 226 1 123 5 230 8 238 3
8 14 14 25 14 19 0 20 -4 14 -46z m54 -194 c0 -233 -1 -240 -20 -240 -19 0
-20 7 -20 240 0 233 1 240 20 240 19 0 20 -7 20 -240z m680 173 c0 -38 3 -146
7 -240 6 -169 6 -173 -14 -173 -27 0 -33 51 -33 293 0 180 1 187 20 187 18 0
20 -7 20 -67z m296 -80 c-4 -82 -9 -190 -12 -240 l-6 -93 -123 0 -123 0 -6 73
c-3 39 -8 147 -12 240 l-6 167 147 0 147 0 -6 -147z m54 -16 c0 -90 -3 -198
-6 -240 -6 -66 -10 -77 -25 -77 -22 0 -23 25 -12 308 6 158 8 172 25 172 17 0
18 -11 18 -163z m794 16 c3 -82 9 -190 12 -240 l5 -93 -25 0 c-25 0 -26 2 -26
68 0 37 -3 145 -7 240 -6 169 -6 172 14 172 20 0 21 -7 27 -147z m466 -93 l0
-240 -25 0 -25 0 0 240 0 240 25 0 25 0 0 -240z m50 143 c0 -54 3 -162 7 -240
l6 -143 -26 0 -27 0 0 240 c0 233 1 240 20 240 19 0 20 -7 20 -97z m514 66 c3
-17 6 -125 6 -240 l0 -209 -25 0 -25 0 0 240 c0 228 1 240 19 240 13 0 20 -10
25 -31z m56 -72 c0 -57 3 -165 7 -240 l6 -137 -26 0 -27 0 0 240 c0 233 1 240
20 240 19 0 20 -7 20 -103z m350 15 c0 -49 -3 -157 -7 -241 -6 -147 -7 -152
-27 -149 -19 3 -21 9 -19 63 15 428 14 415 34 415 17 0 19 -8 19 -88z m236
-427 c3 -14 4 -32 0 -40 -5 -13 -245 -15 -2091 -15 l-2085 0 0 40 0 40 2085 0
2085 0 6 -25z m94 -110 l0 -45 -2182 2 -2183 3 -3 28 c-2 16 -1 35 2 43 5 12
315 14 2186 14 l2180 0 0 -45z m88 -117 l-3 -63 -2270 0 -2270 0 -3 49 c-2 27
-1 55 2 62 5 12 357 14 2276 14 l2271 0 -3 -62z"/>
<path d="M490 3145 c0 -43 4 -75 10 -75 6 0 10 32 10 75 0 43 -4 75 -10 75 -6
0 -10 -32 -10 -75z"/>
<path d="M783 3145 c0 -44 2 -61 4 -37 2 23 2 59 0 80 -2 20 -4 1 -4 -43z"/>
<path d="M1073 3145 c0 -44 2 -61 4 -37 2 23 2 59 0 80 -2 20 -4 1 -4 -43z"/>
<path d="M1353 3145 c0 -44 2 -61 4 -37 2 23 2 59 0 80 -2 20 -4 1 -4 -43z"/>
<path d="M1643 3145 c0 -44 2 -61 4 -37 2 23 2 59 0 80 -2 20 -4 1 -4 -43z"/>
<path d="M1923 3145 c0 -44 2 -61 4 -37 2 23 2 59 0 80 -2 20 -4 1 -4 -43z"/>
<path d="M2213 3145 c0 -44 2 -61 4 -37 2 23 2 59 0 80 -2 20 -4 1 -4 -43z"/>
<path d="M2493 3145 c0 -44 2 -61 4 -37 2 23 2 59 0 80 -2 20 -4 1 -4 -43z"/>
<path d="M2773 3145 c0 -44 2 -61 4 -37 2 23 2 59 0 80 -2 20 -4 1 -4 -43z"/>
<path d="M3063 3145 c0 -44 2 -61 4 -37 2 23 2 59 0 80 -2 20 -4 1 -4 -43z"/>
<path d="M3340 3145 c0 -43 4 -75 10 -75 6 0 10 32 10 75 0 43 -4 75 -10 75
-6 0 -10 -32 -10 -75z"/>
<path d="M3630 3145 c0 -43 4 -75 10 -75 6 0 10 32 10 75 0 43 -4 75 -10 75
-6 0 -10 -32 -10 -75z"/>
<path d="M3913 3145 c0 -44 2 -61 4 -37 2 23 2 59 0 80 -2 20 -4 1 -4 -43z"/>
<path d="M4203 3145 c0 -44 2 -61 4 -37 2 23 2 59 0 80 -2 20 -4 1 -4 -43z"/>
<path d="M4493 3145 c0 -44 2 -61 4 -37 2 23 2 59 0 80 -2 20 -4 1 -4 -43z"/>
</g>
</svg>
